<svg width="570" height="506" viewBox="0 0 570 506" fill="none" xmlns="http://www.w3.org/2000/svg">
<rect width="570" height="506" fill="white"/>
<g filter="url(#filter0_dd_4_5)">
<path d="M78.83 155.96C75.95 155.96 73.262 155.8 70.766 155.48C68.334 155.224 65.902 154.744 63.47 154.04V88.76C65.902 88.056 68.334 87.576 70.766 87.32C73.262 87 75.95 86.84 78.83 86.84C85.55 86.84 90.414 88.312 93.422 91.256C96.494 94.136 98.03 98.584 98.03 104.6C98.03 107.48 97.454 110.168 96.302 112.664C95.214 115.16 93.23 117.208 90.35 118.808V119.192C94.19 120.28 96.91 122.392 98.51 125.528C100.11 128.664 100.91 132.408 100.91 136.76C100.91 143.48 99.278 148.376 96.014 151.448C92.75 154.456 87.022 155.96 78.83 155.96ZM72.11 149.72H78.83C83.63 149.72 87.054 148.728 89.102 146.744C91.214 144.696 92.27 141.368 92.27 136.76C92.27 131.704 91.214 128.12 89.102 126.008C87.054 123.896 83.63 122.84 78.83 122.84H72.11V149.72ZM72.11 116.6H77.87C81.71 116.6 84.59 115.64 86.51 113.72C88.43 111.736 89.39 108.696 89.39 104.6C89.39 100.76 88.43 97.88 86.51 95.96C84.59 94.04 81.71 93.08 77.87 93.08H72.11V116.6ZM111.47 155V87.8H120.11V155H111.47ZM147.995 155.96C144.987 155.96 142.363 155.576 140.123 154.808C137.883 153.976 136.155 152.536 134.939 150.488C133.723 148.376 133.115 145.4 133.115 141.56V107H141.755V141.56C141.755 144.888 142.619 147.16 144.347 148.376C146.075 149.592 148.251 150.2 150.875 150.2C152.091 150.2 153.339 150.008 154.619 149.624C155.899 149.176 156.891 148.728 157.595 148.28V107H166.235V155H159.035L158.555 152.12H158.075C156.859 153.336 155.355 154.296 153.563 155C151.771 155.64 149.915 155.96 147.995 155.96ZM196.918 155.96C192.118 155.96 188.246 155.224 185.302 153.752C182.358 152.216 180.182 149.656 178.773 146.072C177.43 142.424 176.758 137.4 176.758 131C176.758 124.6 177.398 119.608 178.678 116.024C179.958 112.376 181.846 109.816 184.342 108.344C186.838 106.808 189.91 106.04 193.558 106.04C197.27 106.04 200.342 106.808 202.774 108.344C205.27 109.816 207.158 112.376 208.438 116.024C209.718 119.608 210.358 124.6 210.358 131V133.88H185.398C185.398 140.088 186.422 144.376 188.47 146.744C190.582 149.048 194.038 150.2 198.838 150.2H208.438V154.04C207.03 154.488 205.238 154.904 203.062 155.288C200.886 155.736 198.838 155.96 196.918 155.96ZM185.398 128.12H201.718C201.718 123.768 201.334 120.376 200.566 117.944C199.798 115.512 198.806 113.816 197.59 112.856C196.374 111.832 195.03 111.32 193.558 111.32C192.15 111.32 190.806 111.832 189.526 112.856C188.31 113.816 187.318 115.512 186.549 117.944C185.782 120.376 185.398 123.768 185.398 128.12Z" fill="#DE3D3D"/>
<path d="M261.759 155.96C257.471 155.96 253.919 155.224 251.103 153.752C248.351 152.216 246.303 149.656 244.959 146.072C243.679 142.424 243.039 137.4 243.039 131C243.039 124.6 243.679 119.608 244.959 116.024C246.239 112.376 248.191 109.816 250.815 108.344C253.503 106.808 256.831 106.04 260.799 106.04C262.719 106.04 264.767 106.232 266.943 106.616C269.119 107 270.911 107.448 272.319 107.96V111.8H262.719C260.351 111.8 258.335 112.344 256.671 113.432C255.007 114.456 253.759 116.376 252.927 119.192C252.095 121.944 251.679 125.88 251.679 131C251.679 136.12 252.095 140.088 252.927 142.904C253.823 145.656 255.167 147.576 256.959 148.664C258.751 149.688 260.991 150.2 263.679 150.2H273.279V154.04C271.871 154.488 270.079 154.904 267.903 155.288C265.727 155.736 263.679 155.96 261.759 155.96ZM280.959 155V107H288.255L288.735 110.84H289.215C290.367 109.88 291.903 109.016 293.823 108.248C295.807 107.416 298.239 107 301.119 107H305.919V114.2H296.319C295.103 114.2 293.919 114.36 292.767 114.68C291.615 114.936 290.559 115.416 289.599 116.12V155H280.959ZM324.658 155.96C321.778 155.96 319.25 155.544 317.074 154.712C314.962 153.88 313.298 152.376 312.082 150.2C310.866 147.96 310.258 144.76 310.258 140.6C310.258 136.568 310.866 133.496 312.082 131.384C313.298 129.208 314.962 127.736 317.074 126.968C319.25 126.136 321.778 125.72 324.658 125.72C326.13 125.72 327.73 125.816 329.458 126.008C331.25 126.2 332.85 126.424 334.258 126.68V122.36C334.258 118.008 333.33 115.16 331.474 113.816C329.682 112.472 327.09 111.8 323.698 111.8H314.098V107.96C315.57 107.448 317.362 107 319.474 106.616C321.65 106.232 323.698 106.04 325.618 106.04C329.458 106.04 332.658 106.488 335.218 107.384C337.778 108.216 339.698 109.816 340.978 112.184C342.258 114.488 342.898 117.88 342.898 122.36V155H335.698L335.218 152.12H334.738C333.522 153.336 332.018 154.296 330.226 155C328.434 155.64 326.578 155.96 324.658 155.96ZM327.538 150.2C328.754 150.2 330.002 150.008 331.281 149.624C332.562 149.176 333.554 148.728 334.258 148.28V131.48H327.538C325.938 131.48 324.466 131.736 323.122 132.248C321.842 132.76 320.818 133.688 320.049 135.032C319.282 136.312 318.898 138.168 318.898 140.6C318.898 143.16 319.282 145.144 320.049 146.552C320.818 147.896 321.842 148.856 323.122 149.432C324.466 149.944 325.938 150.2 327.538 150.2ZM371.236 155.96C368.356 155.96 365.668 155.704 363.172 155.192C360.74 154.744 358.308 154.04 355.876 153.08V87.8H364.516V108.44C365.988 107.736 367.46 107.16 368.932 106.712C370.468 106.264 372.196 106.04 374.116 106.04C377.508 106.04 380.356 106.808 382.66 108.344C385.028 109.816 386.82 112.376 388.036 116.024C389.316 119.608 389.956 124.6 389.956 131C389.956 137.4 389.284 142.424 387.94 146.072C386.66 149.656 384.644 152.216 381.892 153.752C379.14 155.224 375.588 155.96 371.236 155.96ZM364.516 150.2H371.236C373.348 150.2 375.14 149.688 376.612 148.664C378.148 147.576 379.3 145.656 380.068 142.904C380.9 140.088 381.316 136.12 381.316 131C381.316 125.88 380.9 121.944 380.068 119.192C379.3 116.376 378.148 114.456 376.612 113.432C375.14 112.344 373.348 111.8 371.236 111.8C370.02 111.8 368.772 111.992 367.492 112.376C366.212 112.76 365.22 113.208 364.516 113.72V150.2Z" fill="#DE3D3D"/>
<path d="M70.766 155.48L71.1475 152.504L71.1138 152.5L71.0801 152.496L70.766 155.48ZM63.47 154.04H60.47V156.295L62.6358 156.922L63.47 154.04ZM63.47 88.76L62.6358 85.8783L60.47 86.5052V88.76H63.47ZM70.766 87.32L71.0801 90.3035L71.1138 90.3L71.1475 90.2956L70.766 87.32ZM93.422 91.256L91.3236 93.4L91.3467 93.4226L91.3702 93.4446L93.422 91.256ZM96.302 112.664L93.5781 111.407L93.5647 111.436L93.5519 111.465L96.302 112.664ZM90.35 118.808L88.8931 116.186L87.35 117.043V118.808H90.35ZM90.35 119.192H87.35V121.46L89.5322 122.078L90.35 119.192ZM98.51 125.528L101.182 124.165L98.51 125.528ZM96.014 151.448L98.047 153.654L98.0586 153.643L98.0701 153.633L96.014 151.448ZM72.11 149.72H69.11V152.72H72.11V149.72ZM89.102 146.744L91.1894 148.899L91.1904 148.898L89.102 146.744ZM89.102 126.008L86.9483 128.096L86.9644 128.113L86.9807 128.129L89.102 126.008ZM72.11 122.84V119.84H69.11V122.84H72.11ZM72.11 116.6H69.11V119.6H72.11V116.6ZM86.51 113.72L88.6313 115.841L88.6487 115.824L88.6658 115.806L86.51 113.72ZM86.51 95.96L84.3887 98.0813V98.0813L86.51 95.96ZM72.11 93.08V90.08H69.11V93.08H72.11ZM78.83 152.96C76.0597 152.96 73.5005 152.806 71.1475 152.504L70.3845 158.456C73.0235 158.794 75.8403 158.96 78.83 158.96V152.96ZM71.0801 152.496C68.8302 152.26 66.5721 151.815 64.3042 151.158L62.6358 156.922C65.2319 157.673 67.8378 158.188 70.4519 158.464L71.0801 152.496ZM66.47 154.04V88.76H60.47V154.04H66.47ZM64.3042 91.6417C66.5721 90.9852 68.8302 90.5403 71.0801 90.3035L70.4519 84.3365C67.8378 84.6117 65.2319 85.1268 62.6358 85.8783L64.3042 91.6417ZM71.1475 90.2956C73.5005 89.994 76.0597 89.84 78.83 89.84V83.84C75.8403 83.84 73.0235 84.006 70.3845 84.3444L71.1475 90.2956ZM78.83 89.84C85.2149 89.84 89.1313 91.2544 91.3236 93.4L95.5204 89.112C91.6967 85.3696 85.8851 83.84 78.83 83.84V89.84ZM91.3702 93.4446C93.6161 95.5502 95.03 99.0516 95.03 104.6H101.03C101.03 98.1164 99.3719 92.7218 95.4738 89.0674L91.3702 93.4446ZM95.03 104.6C95.03 107.067 94.5395 109.324 93.5781 111.407L99.0259 113.921C100.368 111.012 101.03 107.893 101.03 104.6H95.03ZM93.5519 111.465C92.7787 113.239 91.3217 114.836 88.8931 116.186L91.8069 121.43C95.1383 119.58 97.6493 117.081 99.0521 113.863L93.5519 111.465ZM87.35 118.808V119.192H93.35V118.808H87.35ZM89.5322 122.078C92.6874 122.972 94.6696 124.602 95.8377 126.891L101.182 124.165C99.1504 120.182 95.6926 117.588 91.1678 116.306L89.5322 122.078ZM95.8377 126.891C97.1774 129.517 97.91 132.772 97.91 136.76H103.91C103.91 132.044 103.043 127.811 101.182 124.165L95.8377 126.891ZM97.91 136.76C97.91 143.065 96.3739 146.99 93.9579 149.263L98.0701 153.633C102.182 149.762 103.91 143.895 103.91 136.76H97.91ZM93.981 149.242C91.581 151.454 86.837 152.96 78.83 152.96V158.96C87.207 158.96 93.919 157.458 98.047 153.654L93.981 149.242ZM72.11 152.72H78.83V146.72H72.11V152.72ZM78.83 152.72C83.9102 152.72 88.3042 151.694 91.1894 148.899L87.0146 144.589C85.8038 145.762 83.3498 146.72 78.83 146.72V152.72ZM91.1904 148.898C94.1432 146.034 95.27 141.731 95.27 136.76H89.27C89.27 141.005 88.2848 143.358 87.0136 144.59L91.1904 148.898ZM95.27 136.76C95.27 131.426 94.1807 126.844 91.2233 123.887L86.9807 128.129C88.2473 129.396 89.27 131.982 89.27 136.76H95.27ZM91.2557 123.92C88.3737 120.947 83.9501 119.84 78.83 119.84V125.84C83.3099 125.84 85.7343 126.845 86.9483 128.096L91.2557 123.92ZM78.83 119.84H72.11V125.84H78.83V119.84ZM69.11 122.84V149.72H75.11V122.84H69.11ZM72.11 119.6H77.87V113.6H72.11V119.6ZM77.87 119.6C82.1724 119.6 85.9503 118.522 88.6313 115.841L84.3887 111.599C83.2297 112.758 81.2476 113.6 77.87 113.6V119.6ZM88.6658 115.806C91.3401 113.043 92.39 109.103 92.39 104.6H86.39C86.39 108.289 85.5199 110.429 84.3542 111.634L88.6658 115.806ZM92.39 104.6C92.39 100.298 91.3124 96.5197 88.6313 93.8387L84.3887 98.0813C85.5476 99.2403 86.39 101.222 86.39 104.6H92.39ZM88.6313 93.8387C85.9503 91.1576 82.1724 90.08 77.87 90.08V96.08C81.2476 96.08 83.2297 96.9224 84.3887 98.0813L88.6313 93.8387ZM77.87 90.08H72.11V96.08H77.87V90.08ZM69.11 93.08V116.6H75.11V93.08H69.11ZM111.47 155H108.47V158H111.47V155ZM111.47 87.8V84.8H108.47V87.8H111.47ZM120.11 87.8H123.11V84.8H120.11V87.8ZM120.11 155V158H123.11V155H120.11ZM114.47 155V87.8H108.47V155H114.47ZM111.47 90.8H120.11V84.8H111.47V90.8ZM117.11 87.8V155H123.11V87.8H117.11ZM120.11 152H111.47V158H120.11V152ZM140.123 154.808L139.078 157.62L139.114 157.634L139.15 157.646L140.123 154.808ZM134.939 150.488L132.339 151.985L132.349 152.002L132.359 152.02L134.939 150.488ZM133.115 107V104H130.115V107H133.115ZM141.755 107H144.755V104H141.755V107ZM144.347 148.376L146.073 145.923L144.347 148.376ZM154.619 149.624L155.481 152.497L155.546 152.478L155.61 152.456L154.619 149.624ZM157.595 148.28L159.206 150.811L160.595 149.927V148.28H157.595ZM157.595 107V104H154.595V107H157.595ZM166.235 107H169.235V104H166.235V107ZM166.235 155V158H169.235V155H166.235ZM159.035 155L156.076 155.493L156.494 158H159.035V155ZM158.555 152.12L161.514 151.627L161.096 149.12H158.555V152.12ZM158.075 152.12V149.12H156.832L155.954 149.999L158.075 152.12ZM153.563 155L154.572 157.825L154.616 157.809L154.66 157.792L153.563 155ZM147.995 152.96C145.233 152.96 142.951 152.606 141.096 151.97L139.15 157.646C141.775 158.546 144.741 158.96 147.995 158.96V152.96ZM141.168 151.996C139.568 151.402 138.383 150.412 137.519 148.956L132.359 152.02C133.927 154.66 136.198 156.55 139.078 157.62L141.168 151.996ZM137.539 148.991C136.694 147.525 136.115 145.149 136.115 141.56H130.115C130.115 145.651 130.752 149.227 132.339 151.985L137.539 148.991ZM136.115 141.56V107H130.115V141.56H136.115ZM133.115 110H141.755V104H133.115V110ZM138.755 107V141.56H144.755V107H138.755ZM138.755 141.56C138.755 145.288 139.717 148.786 142.621 150.829L146.073 145.923C145.521 145.534 144.755 144.488 144.755 141.56H138.755ZM142.621 150.829C144.965 152.479 147.784 153.2 150.875 153.2V147.2C148.718 147.2 147.185 146.705 146.073 145.923L142.621 150.829ZM150.875 153.2C152.41 153.2 153.949 152.957 155.481 152.497L153.757 146.751C152.729 147.059 151.772 147.2 150.875 147.2V153.2ZM155.61 152.456C156.99 151.972 158.225 151.435 159.206 150.811L155.984 145.749C155.557 146.021 154.808 146.38 153.628 146.792L155.61 152.456ZM160.595 148.28V107H154.595V148.28H160.595ZM157.595 110H166.235V104H157.595V110ZM163.235 107V155H169.235V107H163.235ZM166.235 152H159.035V158H166.235V152ZM161.994 154.507L161.514 151.627L155.596 152.613L156.076 155.493L161.994 154.507ZM158.555 149.12H158.075V155.12H158.555V149.12ZM155.954 149.999C155.062 150.89 153.92 151.637 152.466 152.208L154.66 157.792C156.79 156.955 158.656 155.782 160.196 154.241L155.954 149.999ZM152.554 152.175C151.089 152.698 149.574 152.96 147.995 152.96V158.96C150.256 158.96 152.453 158.582 154.572 157.825L152.554 152.175ZM185.301 153.752L183.914 156.412L183.937 156.424L183.96 156.435L185.301 153.752ZM178.773 146.072L175.958 147.109L175.97 147.139L175.981 147.169L178.773 146.072ZM178.678 116.024L181.503 117.033L181.506 117.025L181.508 117.017L178.678 116.024ZM184.342 108.344L185.865 110.928L185.89 110.914L185.914 110.899L184.342 108.344ZM202.773 108.344L201.172 110.88L201.21 110.905L201.25 110.928L202.773 108.344ZM208.438 116.024L205.607 117.017L205.609 117.025L205.612 117.033L208.438 116.024ZM210.357 133.88V136.88H213.357V133.88H210.357ZM185.398 133.88V130.88H182.398V133.88H185.398ZM188.469 146.744L186.2 148.706L186.229 148.739L186.258 148.771L188.469 146.744ZM208.438 150.2H211.438V147.2H208.438V150.2ZM208.438 154.04L209.347 156.899L211.438 156.234V154.04H208.438ZM203.061 155.288L202.54 152.334L202.498 152.341L202.457 152.35L203.061 155.288ZM185.398 128.12H182.398V131.12H185.398V128.12ZM201.717 128.12V131.12H204.717V128.12H201.717ZM200.566 117.944L197.705 118.847L200.566 117.944ZM197.59 112.856L195.657 115.151L195.693 115.181L195.731 115.211L197.59 112.856ZM189.525 112.856L191.384 115.211L191.392 115.205L191.4 115.199L189.525 112.856ZM186.549 117.944L183.689 117.041L186.549 117.944ZM196.917 152.96C192.386 152.96 189.024 152.259 186.643 151.069L183.96 156.435C187.467 158.189 191.849 158.96 196.917 158.96V152.96ZM186.689 151.092C184.487 149.943 182.754 148 181.566 144.975L175.981 147.169C177.609 151.312 180.228 154.489 183.914 156.412L186.689 151.092ZM181.589 145.035C180.421 141.865 179.758 137.244 179.758 131H173.758C173.758 137.556 174.438 142.983 175.958 147.109L181.589 145.035ZM179.758 131C179.758 124.743 180.391 120.146 181.503 117.033L175.852 115.015C174.404 119.07 173.758 124.457 173.758 131H179.758ZM181.508 117.017C182.633 113.812 184.157 111.936 185.865 110.928L182.818 105.76C179.534 107.696 177.282 110.94 175.847 115.031L181.508 117.017ZM185.914 110.899C187.834 109.717 190.329 109.04 193.557 109.04V103.04C189.49 103.04 185.841 103.899 182.769 105.789L185.914 110.899ZM193.557 109.04C196.865 109.04 199.34 109.724 201.172 110.88L204.375 105.808C201.343 103.892 197.674 103.04 193.557 103.04V109.04ZM201.25 110.928C202.958 111.936 204.482 113.812 205.607 117.017L211.268 115.031C209.833 110.94 207.581 107.696 204.297 105.76L201.25 110.928ZM205.612 117.033C206.724 120.146 207.357 124.743 207.357 131H213.357C213.357 124.457 212.711 119.07 211.263 115.015L205.612 117.033ZM207.357 131V133.88H213.357V131H207.357ZM210.357 130.88H185.398V136.88H210.357V130.88ZM182.398 133.88C182.398 140.203 183.397 145.465 186.2 148.706L190.739 144.782C189.446 143.287 188.398 139.973 188.398 133.88H182.398ZM186.258 148.771C189.183 151.962 193.644 153.2 198.837 153.2V147.2C194.431 147.2 191.98 146.134 190.681 144.717L186.258 148.771ZM198.837 153.2H208.438V147.2H198.837V153.2ZM205.438 150.2V154.04H211.438V150.2H205.438ZM207.528 151.181C206.293 151.574 204.642 151.963 202.54 152.334L203.583 158.242C205.833 157.845 207.766 157.402 209.347 156.899L207.528 151.181ZM202.457 152.35C200.449 152.763 198.606 152.96 196.917 152.96V158.96C199.069 158.96 201.322 158.709 203.666 158.226L202.457 152.35ZM185.398 131.12H201.717V125.12H185.398V131.12ZM204.717 128.12C204.717 123.645 204.329 119.9 203.426 117.041L197.705 118.847C198.338 120.852 198.717 123.891 198.717 128.12H204.717ZM203.426 117.041C202.583 114.371 201.352 112.004 199.448 110.501L195.731 115.211C196.259 115.628 197.012 116.653 197.705 118.847L203.426 117.041ZM199.522 110.561C197.812 109.121 195.795 108.32 193.557 108.32V114.32C194.264 114.32 194.935 114.543 195.657 115.151L199.522 110.561ZM193.557 108.32C191.36 108.32 189.372 109.137 187.651 110.513L191.4 115.199C192.239 114.527 192.939 114.32 193.557 114.32V108.32ZM187.667 110.501C185.763 112.004 184.532 114.371 183.689 117.041L189.41 118.847C190.103 116.653 190.856 115.628 191.384 115.211L187.667 110.501ZM183.689 117.041C182.786 119.9 182.398 123.645 182.398 128.12H188.398C188.398 123.891 188.777 120.852 189.41 118.847L183.689 117.041ZM251.103 153.752L249.641 156.372L249.677 156.392L249.713 156.411L251.103 153.752ZM244.959 146.072L242.128 147.065L242.139 147.095L242.15 147.125L244.959 146.072ZM244.959 116.024L247.784 117.033L247.787 117.025L247.79 117.017L244.959 116.024ZM250.815 108.344L252.283 110.96L252.293 110.955L252.303 110.949L250.815 108.344ZM266.943 106.616L266.421 109.57H266.421L266.943 106.616ZM272.319 107.96H275.319V105.859L273.344 105.141L272.319 107.96ZM272.319 111.8V114.8H275.319V111.8H272.319ZM256.671 113.432L258.243 115.987L258.278 115.965L258.312 115.943L256.671 113.432ZM252.927 119.192L255.798 120.06L255.801 120.051L255.804 120.042L252.927 119.192ZM252.927 142.904L250.05 143.754L250.061 143.794L250.074 143.833L252.927 142.904ZM256.959 148.664L255.402 151.228L255.436 151.249L255.47 151.269L256.959 148.664ZM273.279 150.2H276.279V147.2H273.279V150.2ZM273.279 154.04L274.188 156.899L276.279 156.234V154.04H273.279ZM267.903 155.288L267.381 152.334L267.339 152.341L267.298 152.35L267.903 155.288ZM261.759 152.96C257.793 152.96 254.756 152.277 252.493 151.093L249.713 156.411C253.081 158.171 257.148 158.96 261.759 158.96V152.96ZM252.565 151.132C250.559 150.013 248.918 148.086 247.768 145.019L242.15 147.125C243.687 151.226 246.143 154.419 249.641 156.372L252.565 151.132ZM247.79 145.079C246.671 141.891 246.039 137.253 246.039 131H240.039C240.039 137.547 240.686 142.957 242.128 147.065L247.79 145.079ZM246.039 131C246.039 124.743 246.672 120.146 247.784 117.033L242.134 115.015C240.685 119.07 240.039 124.457 240.039 131H246.039ZM247.79 117.017C248.899 113.857 250.46 111.983 252.283 110.96L249.347 105.728C245.922 107.649 243.579 110.895 242.128 115.031L247.79 117.017ZM252.303 110.949C254.427 109.735 257.209 109.04 260.799 109.04V103.04C256.453 103.04 252.578 103.881 249.326 105.739L252.303 110.949ZM260.799 109.04C262.52 109.04 264.392 109.212 266.421 109.57L267.464 103.662C265.141 103.252 262.917 103.04 260.799 103.04V109.04ZM266.421 109.57C268.498 109.937 270.106 110.348 271.294 110.779L273.344 105.141C271.715 104.548 269.739 104.063 267.464 103.662L266.421 109.57ZM269.319 107.96V111.8H275.319V107.96H269.319ZM272.319 108.8H262.719V114.8H272.319V108.8ZM262.719 108.8C259.881 108.8 257.268 109.457 255.029 110.921L258.312 115.943C259.402 115.231 260.821 114.8 262.719 114.8V108.8ZM255.098 110.877C252.552 112.444 250.989 115.163 250.05 118.342L255.804 120.042C256.529 117.589 257.461 116.468 258.243 115.987L255.098 110.877ZM250.055 118.324C249.096 121.495 248.679 125.777 248.679 131H254.679C254.679 125.983 255.093 122.393 255.798 120.06L250.055 118.324ZM248.679 131C248.679 136.228 249.097 140.531 250.05 143.754L255.804 142.054C255.092 139.645 254.679 136.012 254.679 131H248.679ZM250.074 143.833C251.108 147.008 252.798 149.647 255.402 151.228L258.516 146.1C257.536 145.505 256.538 144.304 255.779 141.975L250.074 143.833ZM255.47 151.269C257.833 152.619 260.622 153.2 263.679 153.2V147.2C261.359 147.2 259.669 146.757 258.447 146.059L255.47 151.269ZM263.679 153.2H273.279V147.2H263.679V153.2ZM270.279 150.2V154.04H276.279V150.2H270.279ZM272.369 151.181C271.134 151.574 269.484 151.963 267.381 152.334L268.424 158.242C270.674 157.845 272.608 157.402 274.188 156.899L272.369 151.181ZM267.298 152.35C265.291 152.763 263.447 152.96 261.759 152.96V158.96C263.911 158.96 266.163 158.709 268.508 158.226L267.298 152.35ZM280.959 155H277.959V158H280.959V155ZM280.959 107V104H277.959V107H280.959ZM288.255 107L291.232 106.628L290.903 104H288.255V107ZM288.735 110.84L285.758 111.212L286.086 113.84H288.735V110.84ZM289.215 110.84V113.84H290.301L291.135 113.145L289.215 110.84ZM293.823 108.248L294.937 111.033L294.96 111.024L294.983 111.015L293.823 108.248ZM305.919 107H308.919V104H305.919V107ZM305.919 114.2V117.2H308.919V114.2H305.919ZM292.767 114.68L293.418 117.609L293.494 117.592L293.57 117.571L292.767 114.68ZM289.599 116.12L287.825 113.701L286.599 114.6V116.12H289.599ZM289.599 155V158H292.599V155H289.599ZM283.959 155V107H277.959V155H283.959ZM280.959 110H288.255V104H280.959V110ZM285.278 107.372L285.758 111.212L291.712 110.468L291.232 106.628L285.278 107.372ZM288.735 113.84H289.215V107.84H288.735V113.84ZM291.135 113.145C291.973 112.446 293.207 111.725 294.937 111.033L292.709 105.463C290.599 106.307 288.76 107.314 287.294 108.535L291.135 113.145ZM294.983 111.015C296.498 110.379 298.51 110 301.119 110V104C297.968 104 295.116 104.453 292.663 105.481L294.983 111.015ZM301.119 110H305.919V104H301.119V110ZM302.919 107V114.2H308.919V107H302.919ZM305.919 111.2H296.319V117.2H305.919V111.2ZM296.319 111.2C294.836 111.2 293.382 111.396 291.964 111.789L293.57 117.571C294.456 117.324 295.369 117.2 296.319 117.2V111.2ZM292.116 111.751C290.555 112.098 289.117 112.753 287.825 113.701L291.373 118.539C292.001 118.079 292.675 117.774 293.418 117.609L292.116 111.751ZM286.599 116.12V155H292.599V116.12H286.599ZM289.599 152H280.959V158H289.599V152ZM317.073 154.712L315.974 157.503L315.988 157.509L316.002 157.514L317.073 154.712ZM312.082 150.2L309.445 151.631L309.454 151.647L309.463 151.663L312.082 150.2ZM312.082 131.384L314.681 132.881L314.691 132.864L314.7 132.847L312.082 131.384ZM317.073 126.968L318.099 129.787L318.122 129.779L318.145 129.77L317.073 126.968ZM329.457 126.008L329.126 128.99L329.138 128.991L329.457 126.008ZM334.258 126.68L333.721 129.632L337.258 130.275V126.68H334.258ZM331.474 113.816L329.673 116.216L329.694 116.231L329.714 116.246L331.474 113.816ZM314.098 111.8H311.098V114.8H314.098V111.8ZM314.098 107.96L313.112 105.127L311.098 105.827V107.96H314.098ZM319.474 106.616L318.952 103.662L318.944 103.663L318.937 103.664L319.474 106.616ZM335.217 107.384L334.226 110.216L334.258 110.227L334.29 110.237L335.217 107.384ZM340.978 112.184L338.338 113.611L338.347 113.626L338.355 113.641L340.978 112.184ZM342.897 155V158H345.897V155H342.897ZM335.698 155L332.738 155.493L333.156 158H335.698V155ZM335.217 152.12L338.177 151.627L337.759 149.12H335.217V152.12ZM334.737 152.12V149.12H333.495L332.616 149.999L334.737 152.12ZM330.225 155L331.234 157.825L331.279 157.809L331.322 157.792L330.225 155ZM331.281 149.624L332.144 152.497L332.209 152.478L332.273 152.456L331.281 149.624ZM334.258 148.28L335.868 150.811L337.258 149.927V148.28H334.258ZM334.258 131.48H337.258V128.48H334.258V131.48ZM323.121 132.248L322.054 129.445L322.03 129.453L322.007 129.463L323.121 132.248ZM320.049 135.032L322.622 136.575L322.638 136.548L322.654 136.52L320.049 135.032ZM320.049 146.552L317.416 147.989L317.43 148.015L317.445 148.04L320.049 146.552ZM323.121 149.432L321.89 152.168L321.971 152.204L322.054 152.235L323.121 149.432ZM324.658 152.96C322.06 152.96 319.909 152.584 318.145 151.91L316.002 157.514C318.59 158.504 321.495 158.96 324.658 158.96V152.96ZM318.173 151.921C316.77 151.368 315.614 150.371 314.7 148.737L309.463 151.663C310.981 154.381 313.153 156.392 315.974 157.503L318.173 151.921ZM314.718 148.769C313.846 147.162 313.258 144.541 313.258 140.6H307.258C307.258 144.979 307.885 148.758 309.445 151.631L314.718 148.769ZM313.258 140.6C313.258 136.788 313.847 134.331 314.681 132.881L309.482 129.887C307.884 132.661 307.258 136.348 307.258 140.6H313.258ZM314.7 132.847C315.606 131.226 316.739 130.282 318.099 129.787L316.048 124.149C313.184 125.19 310.989 127.19 309.463 129.921L314.7 132.847ZM318.145 129.77C319.909 129.096 322.06 128.72 324.658 128.72V122.72C321.495 122.72 318.59 123.176 316.002 124.166L318.145 129.77ZM324.658 128.72C326.001 128.72 327.489 128.808 329.126 128.99L329.789 123.026C327.97 122.824 326.258 122.72 324.658 122.72V128.72ZM329.138 128.991C330.875 129.177 332.4 129.392 333.721 129.632L334.794 123.728C333.299 123.456 331.624 123.223 329.777 123.025L329.138 128.991ZM337.258 126.68V122.36H331.258V126.68H337.258ZM337.258 122.36C337.258 117.857 336.349 113.643 333.233 111.386L329.714 116.246C330.31 116.677 331.258 118.159 331.258 122.36H337.258ZM333.273 111.416C330.756 109.528 327.422 108.8 323.698 108.8V114.8C326.757 114.8 328.607 115.416 329.673 116.216L333.273 111.416ZM323.698 108.8H314.098V114.8H323.698V108.8ZM317.098 111.8V107.96H311.098V111.8H317.098ZM315.083 110.793C316.366 110.347 317.998 109.933 320.01 109.568L318.937 103.664C316.725 104.067 314.773 104.549 313.112 105.127L315.083 110.793ZM319.995 109.57C322.024 109.212 323.896 109.04 325.617 109.04V103.04C323.499 103.04 321.275 103.252 318.952 103.662L319.995 109.57ZM325.617 109.04C329.249 109.04 332.087 109.467 334.226 110.216L336.209 104.552C333.228 103.509 329.666 103.04 325.617 103.04V109.04ZM334.29 110.237C336.118 110.831 337.425 111.92 338.338 113.611L343.617 110.757C341.97 107.712 339.437 105.601 336.145 104.531L334.29 110.237ZM338.355 113.641C339.27 115.289 339.897 118.077 339.897 122.36H345.897C345.897 117.683 345.245 113.687 343.6 110.727L338.355 113.641ZM339.897 122.36V155H345.897V122.36H339.897ZM342.897 152H335.698V158H342.897V152ZM338.657 154.507L338.177 151.627L332.258 152.613L332.738 155.493L338.657 154.507ZM335.217 149.12H334.737V155.12H335.217V149.12ZM332.616 149.999C331.725 150.89 330.583 151.637 329.129 152.208L331.322 157.792C333.452 156.955 335.318 155.782 336.859 154.241L332.616 149.999ZM329.216 152.175C327.751 152.698 326.237 152.96 324.658 152.96V158.96C326.918 158.96 329.116 158.582 331.234 157.825L329.216 152.175ZM327.538 153.2C329.073 153.2 330.611 152.957 332.144 152.497L330.419 146.751C329.392 147.059 328.434 147.2 327.538 147.2V153.2ZM332.273 152.456C333.653 151.972 334.888 151.435 335.868 150.811L332.647 145.749C332.219 146.021 331.47 146.38 330.29 146.792L332.273 152.456ZM337.258 148.28V131.48H331.258V148.28H337.258ZM334.258 128.48H327.538V134.48H334.258V128.48ZM327.538 128.48C325.613 128.48 323.775 128.789 322.054 129.445L324.189 135.051C325.156 134.683 326.262 134.48 327.538 134.48V128.48ZM322.007 129.463C320.021 130.257 318.505 131.688 317.445 133.544L322.654 136.52C323.13 135.688 323.662 135.263 324.236 135.033L322.007 129.463ZM317.477 133.489C316.305 135.442 315.897 137.932 315.897 140.6H321.897C321.897 138.404 322.258 137.182 322.622 136.575L317.477 133.489ZM315.897 140.6C315.897 143.393 316.305 145.952 317.416 147.989L322.683 145.115C322.258 144.336 321.897 142.927 321.897 140.6H315.897ZM317.445 148.04C318.493 149.875 319.973 151.305 321.89 152.168L324.353 146.696C323.71 146.407 323.142 145.917 322.654 145.064L317.445 148.04ZM322.054 152.235C323.775 152.891 325.613 153.2 327.538 153.2V147.2C326.262 147.2 325.156 146.997 324.189 146.629L322.054 152.235ZM363.172 155.192L363.775 152.253L363.745 152.247L363.716 152.242L363.172 155.192ZM355.876 153.08H352.876V155.121L354.775 155.87L355.876 153.08ZM355.876 87.8V84.8H352.876V87.8H355.876ZM364.516 87.8H367.516V84.8H364.516V87.8ZM364.516 108.44H361.516V113.2L365.811 111.146L364.516 108.44ZM368.932 106.712L368.092 103.832L368.075 103.837L368.059 103.842L368.932 106.712ZM382.66 108.344L380.996 110.84L381.036 110.867L381.076 110.892L382.66 108.344ZM388.036 116.024L385.19 116.973L385.2 117.003L385.211 117.033L388.036 116.024ZM387.94 146.072L385.125 145.035L385.12 145.049L385.115 145.063L387.94 146.072ZM381.892 153.752L383.307 156.397L383.331 156.385L383.354 156.372L381.892 153.752ZM364.516 150.2H361.516V153.2H364.516V150.2ZM376.612 148.664L378.325 151.127L378.336 151.119L378.346 151.112L376.612 148.664ZM380.068 142.904L377.191 142.054L377.185 142.076L377.179 142.098L380.068 142.904ZM380.068 119.192L377.174 119.981L377.185 120.021L377.197 120.06L380.068 119.192ZM376.612 113.432L374.829 115.845L374.888 115.888L374.948 115.928L376.612 113.432ZM367.492 112.376L366.63 109.503L367.492 112.376ZM364.516 113.72L362.752 111.294L361.516 112.192V113.72H364.516ZM371.236 152.96C368.533 152.96 366.049 152.72 363.775 152.253L362.569 158.131C365.287 158.688 368.179 158.96 371.236 158.96V152.96ZM363.716 152.242C361.485 151.831 359.24 151.182 356.978 150.29L354.775 155.87C357.377 156.898 359.995 157.657 362.629 158.142L363.716 152.242ZM358.876 153.08V87.8H352.876V153.08H358.876ZM355.876 90.8H364.516V84.8H355.876V90.8ZM361.516 87.8V108.44H367.516V87.8H361.516ZM365.811 111.146C367.155 110.504 368.486 109.984 369.806 109.582L368.059 103.842C366.434 104.336 364.822 104.968 363.222 105.734L365.811 111.146ZM369.772 109.592C370.987 109.238 372.426 109.04 374.116 109.04V103.04C371.967 103.04 369.949 103.29 368.092 103.832L369.772 109.592ZM374.116 109.04C377.05 109.04 379.286 109.7 380.996 110.84L384.324 105.848C381.427 103.916 377.966 103.04 374.116 103.04V109.04ZM381.076 110.892C382.659 111.876 384.112 113.739 385.19 116.973L390.882 115.075C389.528 111.013 387.397 107.756 384.244 105.796L381.076 110.892ZM385.211 117.033C386.323 120.146 386.956 124.743 386.956 131H392.956C392.956 124.457 392.31 119.07 390.861 115.015L385.211 117.033ZM386.956 131C386.956 137.244 386.293 141.865 385.125 145.035L390.755 147.109C392.275 142.983 392.956 137.556 392.956 131H386.956ZM385.115 145.063C384.026 148.111 382.422 150.021 380.43 151.132L383.354 156.372C386.866 154.411 389.294 151.201 390.765 147.081L385.115 145.063ZM380.477 151.107C378.298 152.272 375.279 152.96 371.236 152.96V158.96C375.898 158.96 379.982 158.176 383.307 156.397L380.477 151.107ZM364.516 153.2H371.236V147.2H364.516V153.2ZM371.236 153.2C373.849 153.2 376.266 152.559 378.325 151.127L374.899 146.201C374.014 146.817 372.847 147.2 371.236 147.2V153.2ZM378.346 151.112C380.671 149.465 382.096 146.798 382.958 143.71L377.179 142.098C376.504 144.514 375.626 145.687 374.878 146.216L378.346 151.112ZM382.945 143.754C383.898 140.531 384.316 136.228 384.316 131H378.316C378.316 136.012 377.903 139.645 377.191 142.054L382.945 143.754ZM384.316 131C384.316 125.777 383.899 121.495 382.94 118.324L377.197 120.06C377.902 122.393 378.316 125.983 378.316 131H384.316ZM382.963 118.403C382.109 115.273 380.68 112.538 378.276 110.936L374.948 115.928C375.616 116.374 376.492 117.479 377.174 119.981L382.963 118.403ZM378.395 111.019C376.33 109.493 373.888 108.8 371.236 108.8V114.8C372.809 114.8 373.95 115.195 374.829 115.845L378.395 111.019ZM371.236 108.8C369.701 108.8 368.162 109.043 366.63 109.503L368.354 115.249C369.382 114.941 370.34 114.8 371.236 114.8V108.8ZM366.63 109.503C365.181 109.937 363.835 110.506 362.752 111.294L366.281 116.146C366.606 115.91 367.244 115.583 368.354 115.249L366.63 109.503ZM361.516 113.72V150.2H367.516V113.72H361.516Z" fill="black"/>
</g>
<g filter="url(#filter1_dd_4_5)">
<mask id="path-3-inside-1_4_5" fill="white">
<path d="M65.5068 386.493C80.312 401.298 99.7926 410.512 120.629 412.564C141.466 414.616 162.37 409.38 179.779 397.748C197.188 386.116 210.025 368.807 216.103 348.771C222.181 328.735 221.124 307.211 213.111 287.867C205.099 268.523 190.627 252.556 172.161 242.686C153.696 232.816 132.38 229.654 111.844 233.739C91.309 237.824 72.8253 248.902 59.5426 265.087C46.2599 281.272 39 301.562 39 322.5L129.5 322.5L65.5068 386.493Z"/>
</mask>
<path d="M65.5068 386.493C80.312 401.298 99.7926 410.512 120.629 412.564C141.466 414.616 162.37 409.38 179.779 397.748C197.188 386.116 210.025 368.807 216.103 348.771C222.181 328.735 221.124 307.211 213.111 287.867C205.099 268.523 190.627 252.556 172.161 242.686C153.696 232.816 132.38 229.654 111.844 233.739C91.309 237.824 72.8253 248.902 59.5426 265.087C46.2599 281.272 39 301.562 39 322.5L129.5 322.5L65.5068 386.493Z" fill="#C74C4C"/>
<path d="M65.5068 386.493C80.312 401.298 99.7926 410.512 120.629 412.564C141.466 414.616 162.37 409.38 179.779 397.748C197.188 386.116 210.025 368.807 216.103 348.771C222.181 328.735 221.124 307.211 213.111 287.867C205.099 268.523 190.627 252.556 172.161 242.686C153.696 232.816 132.38 229.654 111.844 233.739C91.309 237.824 72.8253 248.902 59.5426 265.087C46.2599 281.272 39 301.562 39 322.5L129.5 322.5L65.5068 386.493Z" stroke="#F8B148" stroke-width="16" mask="url(#path-3-inside-1_4_5)"/>
</g>
<g filter="url(#filter2_dd_4_5)">
<mask id="path-4-inside-2_4_5" fill="white">
<path d="M388.852 183.746C400.971 207.223 405.466 233.896 401.711 260.049C397.956 286.201 386.138 310.532 367.903 329.651C349.669 348.771 325.925 361.727 299.979 366.716C274.034 371.704 247.178 368.477 223.153 357.483C199.128 346.488 179.131 328.275 165.945 305.38C152.76 282.484 147.044 256.046 149.592 229.748C152.141 203.451 162.828 178.603 180.165 158.666C197.502 138.728 220.625 124.694 246.314 118.518L276 242L388.852 183.746Z"/>
</mask>
<path d="M388.852 183.746C400.971 207.223 405.466 233.896 401.711 260.049C397.956 286.201 386.138 310.532 367.903 329.651C349.669 348.771 325.925 361.727 299.979 366.716C274.034 371.704 247.178 368.477 223.153 357.483C199.128 346.488 179.131 328.275 165.945 305.38C152.76 282.484 147.044 256.046 149.592 229.748C152.141 203.451 162.828 178.603 180.165 158.666C197.502 138.728 220.625 124.694 246.314 118.518L276 242L388.852 183.746Z" fill="#7CBBE9"/>
<path d="M388.852 183.746C400.971 207.223 405.466 233.896 401.711 260.049C397.956 286.201 386.138 310.532 367.903 329.651C349.669 348.771 325.925 361.727 299.979 366.716C274.034 371.704 247.178 368.477 223.153 357.483C199.128 346.488 179.131 328.275 165.945 305.38C152.76 282.484 147.044 256.046 149.592 229.748C152.141 203.451 162.828 178.603 180.165 158.666C197.502 138.728 220.625 124.694 246.314 118.518L276 242L388.852 183.746Z" stroke="#2F1F70" stroke-width="54" mask="url(#path-4-inside-2_4_5)"/>
</g>
<g filter="url(#filter3_dd_4_5)">
<mask id="path-5-inside-3_4_5" fill="white">
<path d="M458 332.5C458 315.727 452.064 299.472 441.203 286.506C430.342 273.541 415.228 264.665 398.437 261.393C381.645 258.121 364.215 260.654 349.117 268.561C334.018 276.468 322.185 289.259 315.633 304.755C309.081 320.252 308.217 337.495 313.186 353.546C318.156 369.597 328.653 383.463 342.888 392.782C357.123 402.1 374.215 406.295 391.253 404.651C408.291 403.007 424.22 395.626 436.326 383.765L384 332.5H458Z"/>
</mask>
<path d="M458 332.5C458 315.727 452.064 299.472 441.203 286.506C430.342 273.541 415.228 264.665 398.437 261.393C381.645 258.121 364.215 260.654 349.117 268.561C334.018 276.468 322.185 289.259 315.633 304.755C309.081 320.252 308.217 337.495 313.186 353.546C318.156 369.597 328.653 383.463 342.888 392.782C357.123 402.1 374.215 406.295 391.253 404.651C408.291 403.007 424.22 395.626 436.326 383.765L384 332.5H458Z" fill="#C74C4C"/>
<path d="M458 332.5C458 315.727 452.064 299.472 441.203 286.506C430.342 273.541 415.228 264.665 398.437 261.393C381.645 258.121 364.215 260.654 349.117 268.561C334.018 276.468 322.185 289.259 315.633 304.755C309.081 320.252 308.217 337.495 313.186 353.546C318.156 369.597 328.653 383.463 342.888 392.782C357.123 402.1 374.215 406.295 391.253 404.651C408.291 403.007 424.22 395.626 436.326 383.765L384 332.5H458Z" stroke="#F8B148" stroke-width="16" mask="url(#path-5-inside-3_4_5)"/>
</g>
<defs>
<filter id="filter0_dd_4_5" x="59.47" y="86.84" width="334.486" height="77.12" filterUnits="userSpaceOnUse" color-interpolation-filters="sRGB">
<feFlood flood-opacity="0" result="BackgroundImageFix"/>
<feColorMatrix in="SourceAlpha" type="matrix" values="0 0 0 0 0 0 0 0 0 0 0 0 0 0 0 0 0 0 127 0" result="hardAlpha"/>
<feOffset dy="4"/>
<feGaussianBlur stdDeviation="2"/>
<feComposite in2="hardAlpha" operator="out"/>
<feColorMatrix type="matrix" values="0 0 0 0 0 0 0 0 0 0 0 0 0 0 0 0 0 0 0.25 0"/>
<feBlend mode="normal" in2="BackgroundImageFix" result="effect1_dropShadow_4_5"/>
<feColorMatrix in="SourceAlpha" type="matrix" values="0 0 0 0 0 0 0 0 0 0 0 0 0 0 0 0 0 0 127 0" result="hardAlpha"/>
<feOffset dy="4"/>
<feGaussianBlur stdDeviation="2"/>
<feComposite in2="hardAlpha" operator="out"/>
<feColorMatrix type="matrix" values="0 0 0 0 0 0 0 0 0 0 0 0 0 0 0 0 0 0 0.25 0"/>
<feBlend mode="normal" in2="effect1_dropShadow_4_5" result="effect2_dropShadow_4_5"/>
<feBlend mode="normal" in="SourceGraphic" in2="effect2_dropShadow_4_5" result="shape"/>
</filter>
<filter id="filter1_dd_4_5" x="35" y="232" width="189" height="189" filterUnits="userSpaceOnUse" color-interpolation-filters="sRGB">
<feFlood flood-opacity="0" result="BackgroundImageFix"/>
<feColorMatrix in="SourceAlpha" type="matrix" values="0 0 0 0 0 0 0 0 0 0 0 0 0 0 0 0 0 0 127 0" result="hardAlpha"/>
<feOffset dy="4"/>
<feGaussianBlur stdDeviation="2"/>
<feComposite in2="hardAlpha" operator="out"/>
<feColorMatrix type="matrix" values="0 0 0 0 0 0 0 0 0 0 0 0 0 0 0 0 0 0 0.25 0"/>
<feBlend mode="normal" in2="BackgroundImageFix" result="effect1_dropShadow_4_5"/>
<feColorMatrix in="SourceAlpha" type="matrix" values="0 0 0 0 0 0 0 0 0 0 0 0 0 0 0 0 0 0 127 0" result="hardAlpha"/>
<feOffset dy="4"/>
<feGaussianBlur stdDeviation="2"/>
<feComposite in2="hardAlpha" operator="out"/>
<feColorMatrix type="matrix" values="0 0 0 0 0 0 0 0 0 0 0 0 0 0 0 0 0 0 0.25 0"/>
<feBlend mode="normal" in2="effect1_dropShadow_4_5" result="effect2_dropShadow_4_5"/>
<feBlend mode="normal" in="SourceGraphic" in2="effect2_dropShadow_4_5" result="shape"/>
</filter>
<filter id="filter2_dd_4_5" x="145" y="118.518" width="262" height="258.482" filterUnits="userSpaceOnUse" color-interpolation-filters="sRGB">
<feFlood flood-opacity="0" result="BackgroundImageFix"/>
<feColorMatrix in="SourceAlpha" type="matrix" values="0 0 0 0 0 0 0 0 0 0 0 0 0 0 0 0 0 0 127 0" result="hardAlpha"/>
<feOffset dy="4"/>
<feGaussianBlur stdDeviation="2"/>
<feComposite in2="hardAlpha" operator="out"/>
<feColorMatrix type="matrix" values="0 0 0 0 0 0 0 0 0 0 0 0 0 0 0 0 0 0 0.25 0"/>
<feBlend mode="normal" in2="BackgroundImageFix" result="effect1_dropShadow_4_5"/>
<feColorMatrix in="SourceAlpha" type="matrix" values="0 0 0 0 0 0 0 0 0 0 0 0 0 0 0 0 0 0 127 0" result="hardAlpha"/>
<feOffset dy="4"/>
<feGaussianBlur stdDeviation="2"/>
<feComposite in2="hardAlpha" operator="out"/>
<feColorMatrix type="matrix" values="0 0 0 0 0 0 0 0 0 0 0 0 0 0 0 0 0 0 0.25 0"/>
<feBlend mode="normal" in2="effect1_dropShadow_4_5" result="effect2_dropShadow_4_5"/>
<feBlend mode="normal" in="SourceGraphic" in2="effect2_dropShadow_4_5" result="shape"/>
</filter>
<filter id="filter3_dd_4_5" x="306" y="260" width="156" height="153" filterUnits="userSpaceOnUse" color-interpolation-filters="sRGB">
<feFlood flood-opacity="0" result="BackgroundImageFix"/>
<feColorMatrix in="SourceAlpha" type="matrix" values="0 0 0 0 0 0 0 0 0 0 0 0 0 0 0 0 0 0 127 0" result="hardAlpha"/>
<feOffset dy="4"/>
<feGaussianBlur stdDeviation="2"/>
<feComposite in2="hardAlpha" operator="out"/>
<feColorMatrix type="matrix" values="0 0 0 0 0 0 0 0 0 0 0 0 0 0 0 0 0 0 0.25 0"/>
<feBlend mode="normal" in2="BackgroundImageFix" result="effect1_dropShadow_4_5"/>
<feColorMatrix in="SourceAlpha" type="matrix" values="0 0 0 0 0 0 0 0 0 0 0 0 0 0 0 0 0 0 127 0" result="hardAlpha"/>
<feOffset dy="4"/>
<feGaussianBlur stdDeviation="2"/>
<feComposite in2="hardAlpha" operator="out"/>
<feColorMatrix type="matrix" values="0 0 0 0 0 0 0 0 0 0 0 0 0 0 0 0 0 0 0.25 0"/>
<feBlend mode="normal" in2="effect1_dropShadow_4_5" result="effect2_dropShadow_4_5"/>
<feBlend mode="normal" in="SourceGraphic" in2="effect2_dropShadow_4_5" result="shape"/>
</filter>
</defs>
</svg>
