<svg width="745" height="606" viewBox="0 0 745 606" fill="none" xmlns="http://www.w3.org/2000/svg">
<path d="M40 42C40 40.8954 40.8954 40 42 40H703C704.105 40 705 40.8954 705 42V564C705 565.105 704.105 566 703 566H42C40.8954 566 40 565.105 40 564V42Z" fill="#E5E5E5"/>
<g filter="url(#filter0_dd_0_1)">
<path d="M171.83 222.96C168.95 222.96 166.262 222.8 163.766 222.48C161.334 222.224 158.902 221.744 156.47 221.04V155.76C158.902 155.056 161.334 154.576 163.766 154.32C166.262 154 168.95 153.84 171.83 153.84C178.55 153.84 183.414 155.312 186.422 158.256C189.494 161.136 191.03 165.584 191.03 171.6C191.03 174.48 190.454 177.168 189.302 179.664C188.214 182.16 186.23 184.208 183.35 185.808V186.192C187.19 187.28 189.91 189.392 191.51 192.528C193.11 195.664 193.91 199.408 193.91 203.76C193.91 210.48 192.278 215.376 189.014 218.448C185.75 221.456 180.022 222.96 171.83 222.96ZM165.11 216.72H171.83C176.63 216.72 180.054 215.728 182.102 213.744C184.214 211.696 185.27 208.368 185.27 203.76C185.27 198.704 184.214 195.12 182.102 193.008C180.054 190.896 176.63 189.84 171.83 189.84H165.11V216.72ZM165.11 183.6H170.87C174.71 183.6 177.59 182.64 179.51 180.72C181.43 178.736 182.39 175.696 182.39 171.6C182.39 167.76 181.43 164.88 179.51 162.96C177.59 161.04 174.71 160.08 170.87 160.08H165.11V183.6ZM204.47 222V154.8H213.11V222H204.47ZM240.995 222.96C237.987 222.96 235.363 222.576 233.123 221.808C230.883 220.976 229.155 219.536 227.939 217.488C226.723 215.376 226.115 212.4 226.115 208.56V174H234.755V208.56C234.755 211.888 235.619 214.16 237.347 215.376C239.075 216.592 241.251 217.2 243.875 217.2C245.091 217.2 246.339 217.008 247.619 216.624C248.899 216.176 249.891 215.728 250.595 215.28V174H259.235V222H252.035L251.555 219.12H251.075C249.859 220.336 248.355 221.296 246.563 222C244.771 222.64 242.915 222.96 240.995 222.96ZM289.918 222.96C285.118 222.96 281.246 222.224 278.302 220.752C275.358 219.216 273.182 216.656 271.773 213.072C270.43 209.424 269.758 204.4 269.758 198C269.758 191.6 270.398 186.608 271.678 183.024C272.958 179.376 274.846 176.816 277.342 175.344C279.838 173.808 282.91 173.04 286.558 173.04C290.27 173.04 293.342 173.808 295.774 175.344C298.27 176.816 300.158 179.376 301.438 183.024C302.718 186.608 303.358 191.6 303.358 198V200.88H278.398C278.398 207.088 279.422 211.376 281.47 213.744C283.582 216.048 287.038 217.2 291.838 217.2H301.438V221.04C300.03 221.488 298.238 221.904 296.062 222.288C293.886 222.736 291.838 222.96 289.918 222.96ZM278.398 195.12H294.718C294.718 190.768 294.334 187.376 293.566 184.944C292.798 182.512 291.806 180.816 290.59 179.856C289.374 178.832 288.03 178.32 286.558 178.32C285.15 178.32 283.806 178.832 282.526 179.856C281.31 180.816 280.318 182.512 279.549 184.944C278.782 187.376 278.398 190.768 278.398 195.12Z" fill="#DE3D3D"/>
<path d="M354.759 222.96C350.471 222.96 346.919 222.224 344.103 220.752C341.351 219.216 339.303 216.656 337.959 213.072C336.679 209.424 336.039 204.4 336.039 198C336.039 191.6 336.679 186.608 337.959 183.024C339.239 179.376 341.191 176.816 343.815 175.344C346.503 173.808 349.831 173.04 353.799 173.04C355.719 173.04 357.767 173.232 359.943 173.616C362.119 174 363.911 174.448 365.319 174.96V178.8H355.719C353.351 178.8 351.335 179.344 349.671 180.432C348.007 181.456 346.759 183.376 345.927 186.192C345.095 188.944 344.679 192.88 344.679 198C344.679 203.12 345.095 207.088 345.927 209.904C346.823 212.656 348.167 214.576 349.959 215.664C351.751 216.688 353.991 217.2 356.679 217.2H366.279V221.04C364.871 221.488 363.079 221.904 360.903 222.288C358.727 222.736 356.679 222.96 354.759 222.96ZM373.959 222V174H381.255L381.735 177.84H382.215C383.367 176.88 384.903 176.016 386.823 175.248C388.807 174.416 391.239 174 394.119 174H398.919V181.2H389.319C388.103 181.2 386.919 181.36 385.767 181.68C384.615 181.936 383.559 182.416 382.599 183.12V222H373.959ZM417.658 222.96C414.778 222.96 412.25 222.544 410.074 221.712C407.962 220.88 406.298 219.376 405.082 217.2C403.866 214.96 403.258 211.76 403.258 207.6C403.258 203.568 403.866 200.496 405.082 198.384C406.298 196.208 407.962 194.736 410.074 193.968C412.25 193.136 414.778 192.72 417.658 192.72C419.13 192.72 420.73 192.816 422.458 193.008C424.25 193.2 425.85 193.424 427.258 193.68V189.36C427.258 185.008 426.33 182.16 424.474 180.816C422.682 179.472 420.09 178.8 416.698 178.8H407.098V174.96C408.57 174.448 410.362 174 412.474 173.616C414.65 173.232 416.698 173.04 418.618 173.04C422.458 173.04 425.658 173.488 428.218 174.384C430.778 175.216 432.698 176.816 433.978 179.184C435.258 181.488 435.898 184.88 435.898 189.36V222H428.698L428.218 219.12H427.738C426.522 220.336 425.018 221.296 423.226 222C421.434 222.64 419.578 222.96 417.658 222.96ZM420.538 217.2C421.754 217.2 423.002 217.008 424.281 216.624C425.562 216.176 426.554 215.728 427.258 215.28V198.48H420.538C418.938 198.48 417.466 198.736 416.122 199.248C414.842 199.76 413.818 200.688 413.049 202.032C412.282 203.312 411.898 205.168 411.898 207.6C411.898 210.16 412.282 212.144 413.049 213.552C413.818 214.896 414.842 215.856 416.122 216.432C417.466 216.944 418.938 217.2 420.538 217.2ZM464.236 222.96C461.356 222.96 458.668 222.704 456.172 222.192C453.74 221.744 451.308 221.04 448.876 220.08V154.8H457.516V175.44C458.988 174.736 460.46 174.16 461.932 173.712C463.468 173.264 465.196 173.04 467.116 173.04C470.508 173.04 473.356 173.808 475.66 175.344C478.028 176.816 479.82 179.376 481.036 183.024C482.316 186.608 482.956 191.6 482.956 198C482.956 204.4 482.284 209.424 480.94 213.072C479.66 216.656 477.644 219.216 474.892 220.752C472.14 222.224 468.588 222.96 464.236 222.96ZM457.516 217.2H464.236C466.348 217.2 468.14 216.688 469.612 215.664C471.148 214.576 472.3 212.656 473.068 209.904C473.9 207.088 474.316 203.12 474.316 198C474.316 192.88 473.9 188.944 473.068 186.192C472.3 183.376 471.148 181.456 469.612 180.432C468.14 179.344 466.348 178.8 464.236 178.8C463.02 178.8 461.772 178.992 460.492 179.376C459.212 179.76 458.22 180.208 457.516 180.72V217.2Z" fill="#DE3D3D"/>
<path d="M163.766 222.48L164.147 219.504L164.114 219.5L164.08 219.496L163.766 222.48ZM156.47 221.04H153.47V223.295L155.636 223.922L156.47 221.04ZM156.47 155.76L155.636 152.878L153.47 153.505V155.76H156.47ZM163.766 154.32L164.08 157.304L164.114 157.3L164.147 157.296L163.766 154.32ZM186.422 158.256L184.324 160.4L184.347 160.423L184.37 160.445L186.422 158.256ZM189.302 179.664L186.578 178.407L186.565 178.436L186.552 178.465L189.302 179.664ZM183.35 185.808L181.893 183.186L180.35 184.043V185.808H183.35ZM183.35 186.192H180.35V188.46L182.532 189.078L183.35 186.192ZM191.51 192.528L194.182 191.165L194.182 191.165L191.51 192.528ZM189.014 218.448L191.047 220.654L191.059 220.643L191.07 220.633L189.014 218.448ZM165.11 216.72H162.11V219.72H165.11V216.72ZM182.102 213.744L184.189 215.899L184.19 215.898L182.102 213.744ZM182.102 193.008L179.948 195.096L179.964 195.113L179.981 195.129L182.102 193.008ZM165.11 189.84V186.84H162.11V189.84H165.11ZM165.11 183.6H162.11V186.6H165.11V183.6ZM179.51 180.72L181.631 182.841L181.649 182.824L181.666 182.806L179.51 180.72ZM179.51 162.96L177.389 165.081L177.389 165.081L179.51 162.96ZM165.11 160.08V157.08H162.11V160.08H165.11ZM171.83 219.96C169.06 219.96 166.5 219.806 164.147 219.504L163.385 225.456C166.024 225.794 168.84 225.96 171.83 225.96V219.96ZM164.08 219.496C161.83 219.26 159.572 218.815 157.304 218.158L155.636 223.922C158.232 224.673 160.838 225.188 163.452 225.464L164.08 219.496ZM159.47 221.04V155.76H153.47V221.04H159.47ZM157.304 158.642C159.572 157.985 161.83 157.54 164.08 157.304L163.452 151.336C160.838 151.612 158.232 152.127 155.636 152.878L157.304 158.642ZM164.147 157.296C166.5 156.994 169.06 156.84 171.83 156.84V150.84C168.84 150.84 166.024 151.006 163.385 151.344L164.147 157.296ZM171.83 156.84C178.215 156.84 182.131 158.254 184.324 160.4L188.52 156.112C184.697 152.37 178.885 150.84 171.83 150.84V156.84ZM184.37 160.445C186.616 162.55 188.03 166.052 188.03 171.6H194.03C194.03 165.116 192.372 159.722 188.474 156.067L184.37 160.445ZM188.03 171.6C188.03 174.067 187.54 176.324 186.578 178.407L192.026 180.921C193.368 178.012 194.03 174.893 194.03 171.6H188.03ZM186.552 178.465C185.779 180.239 184.322 181.836 181.893 183.186L184.807 188.43C188.138 186.58 190.649 184.081 192.052 180.863L186.552 178.465ZM180.35 185.808V186.192H186.35V185.808H180.35ZM182.532 189.078C185.687 189.972 187.67 191.602 188.838 193.891L194.182 191.165C192.15 187.182 188.693 184.588 184.168 183.306L182.532 189.078ZM188.838 193.891C190.177 196.517 190.91 199.772 190.91 203.76H196.91C196.91 199.044 196.043 194.811 194.182 191.165L188.838 193.891ZM190.91 203.76C190.91 210.065 189.374 213.99 186.958 216.263L191.07 220.633C195.182 216.762 196.91 210.895 196.91 203.76H190.91ZM186.981 216.242C184.581 218.454 179.837 219.96 171.83 219.96V225.96C180.207 225.96 186.919 224.458 191.047 220.654L186.981 216.242ZM165.11 219.72H171.83V213.72H165.11V219.72ZM171.83 219.72C176.91 219.72 181.304 218.694 184.189 215.899L180.015 211.589C178.804 212.762 176.35 213.72 171.83 213.72V219.72ZM184.19 215.898C187.143 213.034 188.27 208.731 188.27 203.76H182.27C182.27 208.005 181.285 210.358 180.014 211.59L184.19 215.898ZM188.27 203.76C188.27 198.426 187.181 193.844 184.223 190.887L179.981 195.129C181.247 196.396 182.27 198.982 182.27 203.76H188.27ZM184.256 190.92C181.374 187.947 176.95 186.84 171.83 186.84V192.84C176.31 192.84 178.734 193.845 179.948 195.096L184.256 190.92ZM171.83 186.84H165.11V192.84H171.83V186.84ZM162.11 189.84V216.72H168.11V189.84H162.11ZM165.11 186.6H170.87V180.6H165.11V186.6ZM170.87 186.6C175.172 186.6 178.95 185.522 181.631 182.841L177.389 178.599C176.23 179.758 174.248 180.6 170.87 180.6V186.6ZM181.666 182.806C184.34 180.043 185.39 176.103 185.39 171.6H179.39C179.39 175.289 178.52 177.429 177.354 178.634L181.666 182.806ZM185.39 171.6C185.39 167.298 184.312 163.52 181.631 160.839L177.389 165.081C178.548 166.24 179.39 168.222 179.39 171.6H185.39ZM181.631 160.839C178.95 158.158 175.172 157.08 170.87 157.08V163.08C174.248 163.08 176.23 163.922 177.389 165.081L181.631 160.839ZM170.87 157.08H165.11V163.08H170.87V157.08ZM162.11 160.08V183.6H168.11V160.08H162.11ZM204.47 222H201.47V225H204.47V222ZM204.47 154.8V151.8H201.47V154.8H204.47ZM213.11 154.8H216.11V151.8H213.11V154.8ZM213.11 222V225H216.11V222H213.11ZM207.47 222V154.8H201.47V222H207.47ZM204.47 157.8H213.11V151.8H204.47V157.8ZM210.11 154.8V222H216.11V154.8H210.11ZM213.11 219H204.47V225H213.11V219ZM233.123 221.808L232.078 224.62L232.114 224.634L232.15 224.646L233.123 221.808ZM227.939 217.488L225.339 218.985L225.349 219.002L225.359 219.02L227.939 217.488ZM226.115 174V171H223.115V174H226.115ZM234.755 174H237.755V171H234.755V174ZM237.347 215.376L239.073 212.923L239.073 212.923L237.347 215.376ZM247.619 216.624L248.481 219.497L248.546 219.478L248.61 219.456L247.619 216.624ZM250.595 215.28L252.206 217.811L253.595 216.927V215.28H250.595ZM250.595 174V171H247.595V174H250.595ZM259.235 174H262.235V171H259.235V174ZM259.235 222V225H262.235V222H259.235ZM252.035 222L249.076 222.493L249.494 225H252.035V222ZM251.555 219.12L254.514 218.627L254.096 216.12H251.555V219.12ZM251.075 219.12V216.12H249.832L248.954 216.999L251.075 219.12ZM246.563 222L247.572 224.825L247.616 224.809L247.66 224.792L246.563 222ZM240.995 219.96C238.233 219.96 235.951 219.606 234.096 218.97L232.15 224.646C234.775 225.546 237.741 225.96 240.995 225.96V219.96ZM234.168 218.996C232.568 218.402 231.383 217.412 230.519 215.956L225.359 219.02C226.927 221.66 229.198 223.55 232.078 224.62L234.168 218.996ZM230.539 215.991C229.694 214.525 229.115 212.149 229.115 208.56H223.115C223.115 212.651 223.752 216.227 225.339 218.985L230.539 215.991ZM229.115 208.56V174H223.115V208.56H229.115ZM226.115 177H234.755V171H226.115V177ZM231.755 174V208.56H237.755V174H231.755ZM231.755 208.56C231.755 212.288 232.717 215.786 235.621 217.829L239.073 212.923C238.521 212.534 237.755 211.488 237.755 208.56H231.755ZM235.621 217.829C237.965 219.479 240.784 220.2 243.875 220.2V214.2C241.718 214.2 240.185 213.705 239.073 212.923L235.621 217.829ZM243.875 220.2C245.41 220.2 246.949 219.957 248.481 219.497L246.757 213.751C245.729 214.059 244.772 214.2 243.875 214.2V220.2ZM248.61 219.456C249.99 218.972 251.225 218.435 252.206 217.811L248.984 212.749C248.557 213.021 247.808 213.38 246.628 213.792L248.61 219.456ZM253.595 215.28V174H247.595V215.28H253.595ZM250.595 177H259.235V171H250.595V177ZM256.235 174V222H262.235V174H256.235ZM259.235 219H252.035V225H259.235V219ZM254.994 221.507L254.514 218.627L248.596 219.613L249.076 222.493L254.994 221.507ZM251.555 216.12H251.075V222.12H251.555V216.12ZM248.954 216.999C248.062 217.89 246.92 218.637 245.466 219.208L247.66 224.792C249.79 223.955 251.656 222.782 253.196 221.241L248.954 216.999ZM245.554 219.175C244.089 219.698 242.574 219.96 240.995 219.96V225.96C243.256 225.96 245.453 225.582 247.572 224.825L245.554 219.175ZM278.302 220.752L276.914 223.412L276.937 223.424L276.96 223.435L278.302 220.752ZM271.773 213.072L268.958 214.109L268.97 214.139L268.981 214.169L271.773 213.072ZM271.678 183.024L274.503 184.033L274.506 184.025L274.508 184.017L271.678 183.024ZM277.342 175.344L278.865 177.928L278.89 177.914L278.914 177.899L277.342 175.344ZM295.774 175.344L294.172 177.88L294.21 177.905L294.25 177.928L295.774 175.344ZM301.438 183.024L298.607 184.017L298.609 184.025L298.612 184.033L301.438 183.024ZM303.358 200.88V203.88H306.358V200.88H303.358ZM278.398 200.88V197.88H275.398V200.88H278.398ZM281.47 213.744L279.2 215.706L279.229 215.739L279.258 215.771L281.47 213.744ZM301.438 217.2H304.438V214.2H301.438V217.2ZM301.438 221.04L302.347 223.899L304.438 223.234V221.04H301.438ZM296.062 222.288L295.54 219.334L295.498 219.341L295.457 219.35L296.062 222.288ZM278.398 195.12H275.398V198.12H278.398V195.12ZM294.718 195.12V198.12H297.718V195.12H294.718ZM293.566 184.944L290.705 185.847L290.705 185.847L293.566 184.944ZM290.59 179.856L288.657 182.151L288.693 182.181L288.731 182.211L290.59 179.856ZM282.526 179.856L284.384 182.211L284.392 182.205L284.4 182.199L282.526 179.856ZM279.549 184.944L276.689 184.041L276.689 184.041L279.549 184.944ZM289.918 219.96C285.386 219.96 282.024 219.259 279.643 218.069L276.96 223.435C280.467 225.189 284.849 225.96 289.918 225.96V219.96ZM279.689 218.092C277.487 216.943 275.754 215 274.566 211.975L268.981 214.169C270.609 218.312 273.228 221.489 276.914 223.412L279.689 218.092ZM274.589 212.035C273.421 208.865 272.758 204.244 272.758 198H266.758C266.758 204.556 267.438 209.983 268.958 214.109L274.589 212.035ZM272.758 198C272.758 191.743 273.391 187.146 274.503 184.033L268.852 182.015C267.404 186.07 266.758 191.457 266.758 198H272.758ZM274.508 184.017C275.633 180.812 277.157 178.936 278.865 177.928L275.818 172.76C272.534 174.696 270.282 177.94 268.847 182.031L274.508 184.017ZM278.914 177.899C280.834 176.717 283.329 176.04 286.558 176.04V170.04C282.49 170.04 278.841 170.899 275.769 172.789L278.914 177.899ZM286.558 176.04C289.865 176.04 292.34 176.724 294.172 177.88L297.375 172.808C294.343 170.892 290.674 170.04 286.558 170.04V176.04ZM294.25 177.928C295.958 178.936 297.482 180.812 298.607 184.017L304.268 182.031C302.833 177.94 300.581 174.696 297.297 172.76L294.25 177.928ZM298.612 184.033C299.724 187.146 300.358 191.743 300.358 198H306.358C306.358 191.457 305.711 186.07 304.263 182.015L298.612 184.033ZM300.358 198V200.88H306.358V198H300.358ZM303.358 197.88H278.398V203.88H303.358V197.88ZM275.398 200.88C275.398 207.203 276.397 212.465 279.2 215.706L283.739 211.782C282.446 210.287 281.398 206.973 281.398 200.88H275.398ZM279.258 215.771C282.183 218.962 286.644 220.2 291.838 220.2V214.2C287.431 214.2 284.98 213.134 283.681 211.717L279.258 215.771ZM291.838 220.2H301.438V214.2H291.838V220.2ZM298.438 217.2V221.04H304.438V217.2H298.438ZM300.528 218.181C299.293 218.574 297.642 218.963 295.54 219.334L296.583 225.242C298.833 224.845 300.766 224.402 302.347 223.899L300.528 218.181ZM295.457 219.35C293.449 219.763 291.606 219.96 289.918 219.96V225.96C292.069 225.96 294.322 225.709 296.666 225.226L295.457 219.35ZM278.398 198.12H294.718V192.12H278.398V198.12ZM297.718 195.12C297.718 190.645 297.329 186.9 296.426 184.041L290.705 185.847C291.338 187.852 291.718 190.891 291.718 195.12H297.718ZM296.426 184.041C295.583 181.371 294.352 179.004 292.448 177.501L288.731 182.211C289.259 182.628 290.012 183.653 290.705 185.847L296.426 184.041ZM292.522 177.561C290.812 176.121 288.795 175.32 286.558 175.32V181.32C287.264 181.32 287.935 181.543 288.657 182.151L292.522 177.561ZM286.558 175.32C284.36 175.32 282.372 176.137 280.651 177.513L284.4 182.199C285.239 181.527 285.939 181.32 286.558 181.32V175.32ZM280.667 177.501C278.763 179.004 277.532 181.371 276.689 184.041L282.41 185.847C283.103 183.653 283.856 182.628 284.384 182.211L280.667 177.501ZM276.689 184.041C275.786 186.9 275.398 190.645 275.398 195.12H281.398C281.398 190.891 281.777 187.852 282.41 185.847L276.689 184.041ZM344.103 220.752L342.641 223.372L342.677 223.392L342.713 223.411L344.103 220.752ZM337.959 213.072L335.128 214.065L335.139 214.095L335.15 214.125L337.959 213.072ZM337.959 183.024L340.784 184.033L340.787 184.025L340.79 184.017L337.959 183.024ZM343.815 175.344L345.283 177.96L345.293 177.955L345.303 177.949L343.815 175.344ZM359.943 173.616L359.421 176.57L359.421 176.57L359.943 173.616ZM365.319 174.96H368.319V172.859L366.344 172.141L365.319 174.96ZM365.319 178.8V181.8H368.319V178.8H365.319ZM349.671 180.432L351.243 182.987L351.278 182.965L351.312 182.943L349.671 180.432ZM345.927 186.192L348.798 187.06L348.801 187.051L348.804 187.042L345.927 186.192ZM345.927 209.904L343.05 210.754L343.061 210.794L343.074 210.833L345.927 209.904ZM349.959 215.664L348.402 218.228L348.436 218.249L348.47 218.269L349.959 215.664ZM366.279 217.2H369.279V214.2H366.279V217.2ZM366.279 221.04L367.188 223.899L369.279 223.234V221.04H366.279ZM360.903 222.288L360.381 219.334L360.339 219.341L360.298 219.35L360.903 222.288ZM354.759 219.96C350.793 219.96 347.756 219.277 345.493 218.093L342.713 223.411C346.081 225.171 350.148 225.96 354.759 225.96V219.96ZM345.565 218.132C343.559 217.013 341.918 215.086 340.768 212.019L335.15 214.125C336.687 218.226 339.143 221.419 342.641 223.372L345.565 218.132ZM340.79 212.079C339.671 208.891 339.039 204.253 339.039 198H333.039C333.039 204.547 333.686 209.957 335.128 214.065L340.79 212.079ZM339.039 198C339.039 191.743 339.672 187.146 340.784 184.033L335.134 182.015C333.685 186.07 333.039 191.457 333.039 198H339.039ZM340.79 184.017C341.899 180.857 343.46 178.983 345.283 177.96L342.347 172.728C338.922 174.649 336.579 177.895 335.128 182.031L340.79 184.017ZM345.303 177.949C347.427 176.735 350.209 176.04 353.799 176.04V170.04C349.453 170.04 345.578 170.881 342.326 172.739L345.303 177.949ZM353.799 176.04C355.52 176.04 357.392 176.212 359.421 176.57L360.464 170.662C358.141 170.252 355.917 170.04 353.799 170.04V176.04ZM359.421 176.57C361.498 176.937 363.106 177.348 364.294 177.779L366.344 172.141C364.715 171.548 362.739 171.063 360.464 170.662L359.421 176.57ZM362.319 174.96V178.8H368.319V174.96H362.319ZM365.319 175.8H355.719V181.8H365.319V175.8ZM355.719 175.8C352.881 175.8 350.268 176.457 348.029 177.921L351.312 182.943C352.402 182.231 353.821 181.8 355.719 181.8V175.8ZM348.098 177.877C345.552 179.444 343.989 182.163 343.05 185.342L348.804 187.042C349.529 184.589 350.461 183.468 351.243 182.987L348.098 177.877ZM343.055 185.324C342.096 188.495 341.679 192.777 341.679 198H347.679C347.679 192.983 348.093 189.393 348.798 187.06L343.055 185.324ZM341.679 198C341.679 203.228 342.097 207.531 343.05 210.754L348.804 209.054C348.092 206.645 347.679 203.012 347.679 198H341.679ZM343.074 210.833C344.108 214.008 345.798 216.647 348.402 218.228L351.516 213.1C350.536 212.505 349.538 211.304 348.779 208.975L343.074 210.833ZM348.47 218.269C350.833 219.619 353.622 220.2 356.679 220.2V214.2C354.359 214.2 352.669 213.757 351.447 213.059L348.47 218.269ZM356.679 220.2H366.279V214.2H356.679V220.2ZM363.279 217.2V221.04H369.279V217.2H363.279ZM365.369 218.181C364.134 218.574 362.484 218.963 360.381 219.334L361.424 225.242C363.674 224.845 365.608 224.402 367.188 223.899L365.369 218.181ZM360.298 219.35C358.291 219.763 356.447 219.96 354.759 219.96V225.96C356.911 225.96 359.163 225.709 361.508 225.226L360.298 219.35ZM373.959 222H370.959V225H373.959V222ZM373.959 174V171H370.959V174H373.959ZM381.255 174L384.232 173.628L383.903 171H381.255V174ZM381.735 177.84L378.758 178.212L379.086 180.84H381.735V177.84ZM382.215 177.84V180.84H383.301L384.135 180.145L382.215 177.84ZM386.823 175.248L387.937 178.033L387.96 178.024L387.983 178.015L386.823 175.248ZM398.919 174H401.919V171H398.919V174ZM398.919 181.2V184.2H401.919V181.2H398.919ZM385.767 181.68L386.418 184.609L386.494 184.592L386.57 184.571L385.767 181.68ZM382.599 183.12L380.825 180.701L379.599 181.6V183.12H382.599ZM382.599 222V225H385.599V222H382.599ZM376.959 222V174H370.959V222H376.959ZM373.959 177H381.255V171H373.959V177ZM378.278 174.372L378.758 178.212L384.712 177.468L384.232 173.628L378.278 174.372ZM381.735 180.84H382.215V174.84H381.735V180.84ZM384.135 180.145C384.973 179.446 386.207 178.725 387.937 178.033L385.709 172.463C383.599 173.307 381.76 174.314 380.294 175.535L384.135 180.145ZM387.983 178.015C389.498 177.379 391.51 177 394.119 177V171C390.968 171 388.116 171.453 385.663 172.481L387.983 178.015ZM394.119 177H398.919V171H394.119V177ZM395.919 174V181.2H401.919V174H395.919ZM398.919 178.2H389.319V184.2H398.919V178.2ZM389.319 178.2C387.836 178.2 386.382 178.396 384.964 178.789L386.57 184.571C387.456 184.324 388.369 184.2 389.319 184.2V178.2ZM385.116 178.751C383.555 179.098 382.117 179.753 380.825 180.701L384.373 185.539C385.001 185.079 385.675 184.774 386.418 184.609L385.116 178.751ZM379.599 183.12V222H385.599V183.12H379.599ZM382.599 219H373.959V225H382.599V219ZM410.074 221.712L408.974 224.503L408.988 224.509L409.002 224.514L410.074 221.712ZM405.082 217.2L402.445 218.631L402.454 218.647L402.463 218.663L405.082 217.2ZM405.082 198.384L407.681 199.881L407.691 199.864L407.7 199.847L405.082 198.384ZM410.074 193.968L411.099 196.787L411.122 196.779L411.145 196.77L410.074 193.968ZM422.458 193.008L422.126 195.99L422.138 195.991L422.458 193.008ZM427.258 193.68L426.721 196.632L430.258 197.275V193.68H427.258ZM424.474 180.816L422.674 183.216L422.694 183.231L422.714 183.246L424.474 180.816ZM407.098 178.8H404.098V181.8H407.098V178.8ZM407.098 174.96L406.112 172.127L404.098 172.827V174.96H407.098ZM412.474 173.616L411.952 170.662L411.944 170.663L411.937 170.664L412.474 173.616ZM428.218 174.384L427.226 177.216L427.258 177.227L427.29 177.237L428.218 174.384ZM433.978 179.184L431.338 180.611L431.347 180.626L431.355 180.641L433.978 179.184ZM435.898 222V225H438.898V222H435.898ZM428.698 222L425.738 222.493L426.156 225H428.698V222ZM428.218 219.12L431.177 218.627L430.759 216.12H428.218V219.12ZM427.738 219.12V216.12H426.495L425.616 216.999L427.738 219.12ZM423.226 222L424.235 224.825L424.279 224.809L424.322 224.792L423.226 222ZM424.281 216.624L425.144 219.497L425.209 219.478L425.273 219.456L424.281 216.624ZM427.258 215.28L428.868 217.811L430.258 216.927V215.28H427.258ZM427.258 198.48H430.258V195.48H427.258V198.48ZM416.122 199.248L415.054 196.445L415.03 196.453L415.007 196.463L416.122 199.248ZM413.049 202.032L415.622 203.575L415.638 203.548L415.654 203.52L413.049 202.032ZM413.049 213.552L410.416 214.989L410.43 215.015L410.445 215.04L413.049 213.552ZM416.122 216.432L414.89 219.168L414.971 219.204L415.054 219.235L416.122 216.432ZM417.658 219.96C415.06 219.96 412.909 219.584 411.145 218.91L409.002 224.514C411.59 225.504 414.495 225.96 417.658 225.96V219.96ZM411.173 218.921C409.77 218.368 408.614 217.371 407.7 215.737L402.463 218.663C403.981 221.381 406.153 223.392 408.974 224.503L411.173 218.921ZM407.718 215.769C406.846 214.162 406.258 211.541 406.258 207.6H400.258C400.258 211.979 400.885 215.758 402.445 218.631L407.718 215.769ZM406.258 207.6C406.258 203.788 406.847 201.331 407.681 199.881L402.482 196.887C400.884 199.661 400.258 203.348 400.258 207.6H406.258ZM407.7 199.847C408.606 198.226 409.739 197.282 411.099 196.787L409.048 191.149C406.184 192.19 403.989 194.19 402.463 196.921L407.7 199.847ZM411.145 196.77C412.909 196.096 415.06 195.72 417.658 195.72V189.72C414.495 189.72 411.59 190.176 409.002 191.166L411.145 196.77ZM417.658 195.72C419.001 195.72 420.489 195.808 422.126 195.99L422.789 190.026C420.97 189.824 419.258 189.72 417.658 189.72V195.72ZM422.138 195.991C423.875 196.177 425.4 196.392 426.721 196.632L427.794 190.728C426.299 190.456 424.624 190.223 422.777 190.025L422.138 195.991ZM430.258 193.68V189.36H424.258V193.68H430.258ZM430.258 189.36C430.258 184.857 429.349 180.643 426.233 178.386L422.714 183.246C423.31 183.677 424.258 185.159 424.258 189.36H430.258ZM426.274 178.416C423.756 176.528 420.422 175.8 416.698 175.8V181.8C419.757 181.8 421.607 182.416 422.674 183.216L426.274 178.416ZM416.698 175.8H407.098V181.8H416.698V175.8ZM410.098 178.8V174.96H404.098V178.8H410.098ZM408.083 177.793C409.366 177.347 410.998 176.933 413.01 176.568L411.937 170.664C409.725 171.067 407.773 171.549 406.112 172.127L408.083 177.793ZM412.995 176.57C415.024 176.212 416.896 176.04 418.618 176.04V170.04C416.499 170.04 414.275 170.252 411.952 170.662L412.995 176.57ZM418.618 176.04C422.249 176.04 425.087 176.467 427.226 177.216L429.209 171.552C426.228 170.509 422.666 170.04 418.618 170.04V176.04ZM427.29 177.237C429.118 177.831 430.425 178.92 431.338 180.611L436.617 177.757C434.97 174.712 432.437 172.601 429.145 171.531L427.29 177.237ZM431.355 180.641C432.27 182.289 432.898 185.077 432.898 189.36H438.898C438.898 184.683 438.245 180.687 436.6 177.727L431.355 180.641ZM432.898 189.36V222H438.898V189.36H432.898ZM435.898 219H428.698V225H435.898V219ZM431.657 221.507L431.177 218.627L425.258 219.613L425.738 222.493L431.657 221.507ZM428.218 216.12H427.738V222.12H428.218V216.12ZM425.616 216.999C424.725 217.89 423.583 218.637 422.129 219.208L424.322 224.792C426.452 223.955 428.318 222.782 429.859 221.241L425.616 216.999ZM422.216 219.175C420.751 219.698 419.237 219.96 417.658 219.96V225.96C419.918 225.96 422.116 225.582 424.235 224.825L422.216 219.175ZM420.538 220.2C422.073 220.2 423.611 219.957 425.144 219.497L423.419 213.751C422.392 214.059 421.434 214.2 420.538 214.2V220.2ZM425.273 219.456C426.653 218.972 427.888 218.435 428.868 217.811L425.647 212.749C425.219 213.021 424.47 213.38 423.29 213.792L425.273 219.456ZM430.258 215.28V198.48H424.258V215.28H430.258ZM427.258 195.48H420.538V201.48H427.258V195.48ZM420.538 195.48C418.613 195.48 416.775 195.789 415.054 196.445L417.189 202.051C418.156 201.683 419.262 201.48 420.538 201.48V195.48ZM415.007 196.463C413.021 197.257 411.505 198.688 410.445 200.544L415.654 203.52C416.13 202.688 416.662 202.263 417.236 202.033L415.007 196.463ZM410.477 200.489C409.305 202.442 408.898 204.932 408.898 207.6H414.898C414.898 205.404 415.258 204.182 415.622 203.575L410.477 200.489ZM408.898 207.6C408.898 210.393 409.305 212.952 410.416 214.989L415.683 212.115C415.258 211.336 414.898 209.927 414.898 207.6H408.898ZM410.445 215.04C411.493 216.875 412.973 218.305 414.89 219.168L417.353 213.696C416.71 213.407 416.142 212.917 415.654 212.064L410.445 215.04ZM415.054 219.235C416.775 219.891 418.613 220.2 420.538 220.2V214.2C419.262 214.2 418.156 213.997 417.189 213.629L415.054 219.235ZM456.172 222.192L456.775 219.253L456.745 219.247L456.716 219.242L456.172 222.192ZM448.876 220.08H445.876V222.121L447.775 222.87L448.876 220.08ZM448.876 154.8V151.8H445.876V154.8H448.876ZM457.516 154.8H460.516V151.8H457.516V154.8ZM457.516 175.44H454.516V180.2L458.811 178.146L457.516 175.44ZM461.932 173.712L461.092 170.832L461.075 170.837L461.059 170.842L461.932 173.712ZM475.66 175.344L473.996 177.84L474.036 177.867L474.076 177.892L475.66 175.344ZM481.036 183.024L478.19 183.973L478.2 184.003L478.211 184.033L481.036 183.024ZM480.94 213.072L478.125 212.035L478.12 212.049L478.115 212.063L480.94 213.072ZM474.892 220.752L476.307 223.397L476.331 223.385L476.354 223.372L474.892 220.752ZM457.516 217.2H454.516V220.2H457.516V217.2ZM469.612 215.664L471.325 218.127L471.336 218.119L471.346 218.112L469.612 215.664ZM473.068 209.904L470.191 209.054L470.185 209.076L470.179 209.098L473.068 209.904ZM473.068 186.192L470.174 186.981L470.185 187.021L470.197 187.06L473.068 186.192ZM469.612 180.432L467.829 182.845L467.888 182.888L467.948 182.928L469.612 180.432ZM460.492 179.376L459.63 176.503L459.63 176.503L460.492 179.376ZM457.516 180.72L455.752 178.294L454.516 179.192V180.72H457.516ZM464.236 219.96C461.533 219.96 459.049 219.72 456.775 219.253L455.569 225.131C458.287 225.688 461.179 225.96 464.236 225.96V219.96ZM456.716 219.242C454.485 218.831 452.24 218.182 449.978 217.29L447.775 222.87C450.377 223.898 452.995 224.657 455.629 225.142L456.716 219.242ZM451.876 220.08V154.8H445.876V220.08H451.876ZM448.876 157.8H457.516V151.8H448.876V157.8ZM454.516 154.8V175.44H460.516V154.8H454.516ZM458.811 178.146C460.155 177.504 461.486 176.984 462.806 176.582L461.059 170.842C459.434 171.336 457.822 171.968 456.222 172.734L458.811 178.146ZM462.772 176.592C463.987 176.238 465.426 176.04 467.116 176.04V170.04C464.967 170.04 462.949 170.29 461.092 170.832L462.772 176.592ZM467.116 176.04C470.05 176.04 472.286 176.7 473.996 177.84L477.324 172.848C474.427 170.916 470.966 170.04 467.116 170.04V176.04ZM474.076 177.892C475.659 178.876 477.112 180.739 478.19 183.973L483.882 182.075C482.528 178.013 480.397 174.756 477.244 172.796L474.076 177.892ZM478.211 184.033C479.323 187.146 479.956 191.743 479.956 198H485.956C485.956 191.457 485.31 186.07 483.861 182.015L478.211 184.033ZM479.956 198C479.956 204.244 479.293 208.865 478.125 212.035L483.755 214.109C485.275 209.983 485.956 204.556 485.956 198H479.956ZM478.115 212.063C477.026 215.111 475.422 217.021 473.43 218.132L476.354 223.372C479.866 221.411 482.294 218.201 483.765 214.081L478.115 212.063ZM473.477 218.107C471.298 219.272 468.279 219.96 464.236 219.96V225.96C468.898 225.96 472.982 225.176 476.307 223.397L473.477 218.107ZM457.516 220.2H464.236V214.2H457.516V220.2ZM464.236 220.2C466.849 220.2 469.266 219.559 471.325 218.127L467.899 213.201C467.014 213.817 465.847 214.2 464.236 214.2V220.2ZM471.346 218.112C473.671 216.465 475.096 213.798 475.958 210.71L470.179 209.098C469.504 211.514 468.626 212.687 467.878 213.216L471.346 218.112ZM475.945 210.754C476.898 207.531 477.316 203.228 477.316 198H471.316C471.316 203.012 470.903 206.645 470.191 209.054L475.945 210.754ZM477.316 198C477.316 192.777 476.899 188.495 475.94 185.324L470.197 187.06C470.902 189.393 471.316 192.983 471.316 198H477.316ZM475.963 185.403C475.109 182.273 473.68 179.538 471.276 177.936L467.948 182.928C468.617 183.374 469.492 184.479 470.174 186.981L475.963 185.403ZM471.395 178.019C469.33 176.493 466.888 175.8 464.236 175.8V181.8C465.809 181.8 466.95 182.195 467.829 182.845L471.395 178.019ZM464.236 175.8C462.701 175.8 461.162 176.043 459.63 176.503L461.354 182.249C462.382 181.941 463.34 181.8 464.236 181.8V175.8ZM459.63 176.503C458.181 176.937 456.835 177.506 455.752 178.294L459.281 183.146C459.606 182.91 460.244 182.583 461.354 182.249L459.63 176.503ZM454.516 180.72V217.2H460.516V180.72H454.516Z" fill="black"/>
</g>
<g filter="url(#filter1_dd_0_1)">
<mask id="path-5-inside-1_0_1" fill="white">
<path d="M158.507 453.493C173.312 468.298 192.793 477.512 213.629 479.564C234.466 481.616 255.37 476.38 272.779 464.748C290.188 453.116 303.025 435.807 309.103 415.771C315.181 395.735 314.124 374.211 306.111 354.867C298.099 335.523 283.627 319.556 265.161 309.686C246.696 299.816 225.38 296.654 204.844 300.739C184.309 304.824 165.825 315.902 152.543 332.087C139.26 348.272 132 368.562 132 389.5L222.5 389.5L158.507 453.493Z"/>
</mask>
<path d="M158.507 453.493C173.312 468.298 192.793 477.512 213.629 479.564C234.466 481.616 255.37 476.38 272.779 464.748C290.188 453.116 303.025 435.807 309.103 415.771C315.181 395.735 314.124 374.211 306.111 354.867C298.099 335.523 283.627 319.556 265.161 309.686C246.696 299.816 225.38 296.654 204.844 300.739C184.309 304.824 165.825 315.902 152.543 332.087C139.26 348.272 132 368.562 132 389.5L222.5 389.5L158.507 453.493Z" fill="#C74C4C"/>
<path d="M158.507 453.493C173.312 468.298 192.793 477.512 213.629 479.564C234.466 481.616 255.37 476.38 272.779 464.748C290.188 453.116 303.025 435.807 309.103 415.771C315.181 395.735 314.124 374.211 306.111 354.867C298.099 335.523 283.627 319.556 265.161 309.686C246.696 299.816 225.38 296.654 204.844 300.739C184.309 304.824 165.825 315.902 152.543 332.087C139.26 348.272 132 368.562 132 389.5L222.5 389.5L158.507 453.493Z" stroke="#F8B148" stroke-width="16" mask="url(#path-5-inside-1_0_1)"/>
</g>
<g filter="url(#filter2_dd_0_1)">
<mask id="path-6-inside-2_0_1" fill="white">
<path d="M481.852 250.746C493.971 274.223 498.466 300.896 494.711 327.049C490.956 353.201 479.138 377.532 460.903 396.651C442.669 415.771 418.925 428.727 392.979 433.716C367.034 438.704 340.178 435.477 316.153 424.483C292.128 413.488 272.131 395.275 258.945 372.38C245.76 349.484 240.044 323.046 242.592 296.748C245.141 270.451 255.828 245.603 273.165 225.666C290.502 205.728 313.625 191.694 339.314 185.518L369 309L481.852 250.746Z"/>
</mask>
<path d="M481.852 250.746C493.971 274.223 498.466 300.896 494.711 327.049C490.956 353.201 479.138 377.532 460.903 396.651C442.669 415.771 418.925 428.727 392.979 433.716C367.034 438.704 340.178 435.477 316.153 424.483C292.128 413.488 272.131 395.275 258.945 372.38C245.76 349.484 240.044 323.046 242.592 296.748C245.141 270.451 255.828 245.603 273.165 225.666C290.502 205.728 313.625 191.694 339.314 185.518L369 309L481.852 250.746Z" fill="#7CBBE9"/>
<path d="M481.852 250.746C493.971 274.223 498.466 300.896 494.711 327.049C490.956 353.201 479.138 377.532 460.903 396.651C442.669 415.771 418.925 428.727 392.979 433.716C367.034 438.704 340.178 435.477 316.153 424.483C292.128 413.488 272.131 395.275 258.945 372.38C245.76 349.484 240.044 323.046 242.592 296.748C245.141 270.451 255.828 245.603 273.165 225.666C290.502 205.728 313.625 191.694 339.314 185.518L369 309L481.852 250.746Z" stroke="#2F1F70" stroke-width="54" mask="url(#path-6-inside-2_0_1)"/>
</g>
<g filter="url(#filter3_dd_0_1)">
<mask id="path-7-inside-3_0_1" fill="white">
<path d="M551 399.5C551 382.727 545.064 366.472 534.203 353.506C523.342 340.541 508.228 331.665 491.437 328.393C474.645 325.121 457.215 327.654 442.117 335.561C427.018 343.468 415.185 356.259 408.633 371.755C402.081 387.252 401.217 404.495 406.186 420.546C411.156 436.597 421.653 450.463 435.888 459.782C450.123 469.1 467.215 473.295 484.253 471.651C501.291 470.007 517.22 462.626 529.326 450.765L477 399.5H551Z"/>
</mask>
<path d="M551 399.5C551 382.727 545.064 366.472 534.203 353.506C523.342 340.541 508.228 331.665 491.437 328.393C474.645 325.121 457.215 327.654 442.117 335.561C427.018 343.468 415.185 356.259 408.633 371.755C402.081 387.252 401.217 404.495 406.186 420.546C411.156 436.597 421.653 450.463 435.888 459.782C450.123 469.1 467.215 473.295 484.253 471.651C501.291 470.007 517.22 462.626 529.326 450.765L477 399.5H551Z" fill="#C74C4C"/>
<path d="M551 399.5C551 382.727 545.064 366.472 534.203 353.506C523.342 340.541 508.228 331.665 491.437 328.393C474.645 325.121 457.215 327.654 442.117 335.561C427.018 343.468 415.185 356.259 408.633 371.755C402.081 387.252 401.217 404.495 406.186 420.546C411.156 436.597 421.653 450.463 435.888 459.782C450.123 469.1 467.215 473.295 484.253 471.651C501.291 470.007 517.22 462.626 529.326 450.765L477 399.5H551Z" stroke="#F8B148" stroke-width="16" mask="url(#path-7-inside-3_0_1)"/>
</g>
<path d="M42 41H703V39H42V41ZM704 42V564H706V42H704ZM703 565H42V567H703V565ZM41 564V42H39V564H41ZM42 565C41.4477 565 41 564.552 41 564H39C39 565.657 40.3432 567 42 567V565ZM704 564C704 564.552 703.552 565 703 565V567C704.657 567 706 565.657 706 564H704ZM703 41C703.552 41 704 41.4477 704 42H706C706 40.3431 704.657 39 703 39V41ZM42 39C40.3431 39 39 40.3432 39 42H41C41 41.4477 41.4477 41 42 41V39Z" fill="black" fill-opacity="0.1"/>
<rect x="40" y="8" width="55.375" height="26" rx="2" fill="#E5E5E5"/>
<rect x="40.5" y="8.5" width="54.375" height="25" rx="1.5" stroke="black" stroke-opacity="0.14902"/>
<path d="M49.3438 18C49.2969 17.6042 49.1068 17.2969 48.7734 17.0781C48.4401 16.8594 48.0313 16.75 47.5469 16.75C47.1927 16.75 46.8828 16.8073 46.6172 16.9219C46.3542 17.0365 46.1484 17.194 46 17.3945C45.8542 17.5951 45.7813 17.8229 45.7813 18.0781C45.7813 18.2917 45.832 18.4753 45.9336 18.6289C46.0378 18.7799 46.1706 18.9062 46.332 19.0078C46.4935 19.1068 46.6628 19.1888 46.8398 19.2539C47.0169 19.3164 47.1797 19.3672 47.3281 19.4062L48.1406 19.625C48.349 19.6797 48.5807 19.7552 48.8359 19.8516C49.0938 19.9479 49.3398 20.0794 49.5742 20.2461C49.8112 20.4102 50.0065 20.6211 50.1602 20.8789C50.3138 21.1367 50.3906 21.4531 50.3906 21.8281C50.3906 22.2604 50.2773 22.651 50.0508 23C49.8268 23.349 49.4987 23.6263 49.0664 23.832C48.6367 24.0378 48.1146 24.1406 47.5 24.1406C46.9271 24.1406 46.431 24.0482 46.0117 23.8633C45.5951 23.6784 45.2669 23.4206 45.0273 23.0898C44.7904 22.7591 44.6563 22.375 44.625 21.9375H45.625C45.651 22.2396 45.7526 22.4896 45.9297 22.6875C46.1094 22.8828 46.3359 23.0286 46.6094 23.125C46.8854 23.2187 47.1823 23.2656 47.5 23.2656C47.8698 23.2656 48.2018 23.2057 48.4961 23.0859C48.7904 22.9635 49.0234 22.7943 49.1953 22.5781C49.3672 22.3594 49.4531 22.1042 49.4531 21.8125C49.4531 21.5469 49.3789 21.3307 49.2305 21.1641C49.082 20.9974 48.8867 20.862 48.6445 20.7578C48.4023 20.6536 48.1406 20.5625 47.8594 20.4844L46.875 20.2031C46.25 20.0234 45.7552 19.7669 45.3906 19.4336C45.026 19.1003 44.8438 18.6641 44.8438 18.125C44.8438 17.6771 44.9648 17.2865 45.207 16.9531C45.4518 16.6172 45.7799 16.3568 46.1914 16.1719C46.6055 15.9844 47.0677 15.8906 47.5781 15.8906C48.0938 15.8906 48.5521 15.9831 48.9531 16.168C49.3542 16.3503 49.6719 16.6003 49.9062 16.918C50.1432 17.2357 50.2682 17.5964 50.2813 18H49.3438ZM54.374 24.125C53.7959 24.125 53.2972 23.9974 52.8779 23.7422C52.4613 23.4844 52.1396 23.125 51.9131 22.6641C51.6891 22.2005 51.5771 21.6615 51.5771 21.0469C51.5771 20.4323 51.6891 19.8906 51.9131 19.4219C52.1396 18.9505 52.4548 18.5833 52.8584 18.3203C53.2646 18.0547 53.7386 17.9219 54.2803 17.9219C54.5928 17.9219 54.9014 17.974 55.2061 18.0781C55.5107 18.1823 55.7881 18.3516 56.0381 18.5859C56.2881 18.8177 56.4873 19.125 56.6357 19.5078C56.7842 19.8906 56.8584 20.362 56.8584 20.9219V21.3125H52.2334V20.5156H55.9209C55.9209 20.1771 55.8532 19.875 55.7178 19.6094C55.585 19.3437 55.3949 19.1341 55.1475 18.9805C54.9027 18.8268 54.6136 18.75 54.2803 18.75C53.9131 18.75 53.5954 18.8411 53.3271 19.0234C53.0615 19.2031 52.8571 19.4375 52.7139 19.7266C52.5706 20.0156 52.499 20.3255 52.499 20.6562V21.1875C52.499 21.6406 52.5771 22.0247 52.7334 22.3398C52.8923 22.6523 53.1123 22.8906 53.3936 23.0547C53.6748 23.2161 54.0016 23.2969 54.374 23.2969C54.6162 23.2969 54.835 23.263 55.0303 23.1953C55.2282 23.125 55.3988 23.0208 55.542 22.8828C55.6852 22.7422 55.7959 22.5677 55.874 22.3594L56.7646 22.6094C56.6709 22.9115 56.5133 23.1771 56.292 23.4062C56.0706 23.6328 55.7972 23.8099 55.4717 23.9375C55.1462 24.0625 54.7803 24.125 54.374 24.125ZM60.6982 24.125C60.1357 24.125 59.6514 23.9922 59.2451 23.7266C58.8389 23.4609 58.5264 23.0951 58.3076 22.6289C58.0889 22.1628 57.9795 21.6302 57.9795 21.0312C57.9795 20.4219 58.0915 19.8841 58.3154 19.418C58.542 18.9492 58.8571 18.5833 59.2607 18.3203C59.667 18.0547 60.141 17.9219 60.6826 17.9219C61.1045 17.9219 61.4847 18 61.8232 18.1562C62.1618 18.3125 62.4391 18.5312 62.6553 18.8125C62.8714 19.0937 63.0055 19.4219 63.0576 19.7969H62.1357C62.0654 19.5234 61.9092 19.2812 61.667 19.0703C61.4274 18.8568 61.1045 18.75 60.6982 18.75C60.3389 18.75 60.0238 18.8437 59.7529 19.0312C59.4847 19.2161 59.2751 19.4779 59.124 19.8164C58.9756 20.1523 58.9014 20.5469 58.9014 21C58.9014 21.4635 58.9743 21.8672 59.1201 22.2109C59.2686 22.5547 59.4769 22.8216 59.7451 23.0117C60.016 23.2018 60.3337 23.2969 60.6982 23.2969C60.9378 23.2969 61.1553 23.2552 61.3506 23.1719C61.5459 23.0885 61.7113 22.9688 61.8467 22.8125C61.9821 22.6562 62.0785 22.4687 62.1357 22.25H63.0576C63.0055 22.6042 62.8766 22.9232 62.6709 23.207C62.4678 23.4883 62.1982 23.7122 61.8623 23.8789C61.529 24.043 61.141 24.125 60.6982 24.125ZM67.0146 18V18.7812H63.9053V18H67.0146ZM64.8115 16.5625H65.7334V22.2812C65.7334 22.5417 65.7712 22.737 65.8467 22.8672C65.9248 22.9948 66.0238 23.0807 66.1436 23.125C66.266 23.1667 66.3949 23.1875 66.5303 23.1875C66.6318 23.1875 66.7152 23.1823 66.7803 23.1719C66.8454 23.1589 66.8975 23.1484 66.9365 23.1406L67.124 23.9687C67.0615 23.9922 66.9743 24.0156 66.8623 24.0391C66.7503 24.0651 66.6084 24.0781 66.4365 24.0781C66.1761 24.0781 65.9209 24.0221 65.6709 23.9102C65.4235 23.7982 65.2178 23.6276 65.0537 23.3984C64.8923 23.1693 64.8115 22.8802 64.8115 22.5312V16.5625ZM68.4014 24V18H69.3232V24H68.4014ZM68.8701 17C68.6904 17 68.5355 16.9388 68.4053 16.8164C68.2777 16.694 68.2139 16.5469 68.2139 16.375C68.2139 16.2031 68.2777 16.056 68.4053 15.9336C68.5355 15.8112 68.6904 15.75 68.8701 15.75C69.0498 15.75 69.2035 15.8112 69.3311 15.9336C69.4613 16.056 69.5264 16.2031 69.5264 16.375C69.5264 16.5469 69.4613 16.694 69.3311 16.8164C69.2035 16.9388 69.0498 17 68.8701 17ZM73.4492 24.125C72.9076 24.125 72.4323 23.9961 72.0234 23.7383C71.6172 23.4805 71.2995 23.1198 71.0703 22.6562C70.8438 22.1927 70.7305 21.651 70.7305 21.0312C70.7305 20.4062 70.8438 19.8607 71.0703 19.3945C71.2995 18.9284 71.6172 18.5664 72.0234 18.3086C72.4323 18.0508 72.9076 17.9219 73.4492 17.9219C73.9909 17.9219 74.4648 18.0508 74.8711 18.3086C75.2799 18.5664 75.5977 18.9284 75.8242 19.3945C76.0534 19.8607 76.168 20.4062 76.168 21.0312C76.168 21.651 76.0534 22.1927 75.8242 22.6562C75.5977 23.1198 75.2799 23.4805 74.8711 23.7383C74.4648 23.9961 73.9909 24.125 73.4492 24.125ZM73.4492 23.2969C73.8607 23.2969 74.1992 23.1914 74.4648 22.9805C74.7305 22.7695 74.9271 22.4922 75.0547 22.1484C75.1823 21.8047 75.2461 21.4323 75.2461 21.0312C75.2461 20.6302 75.1823 20.2565 75.0547 19.9102C74.9271 19.5638 74.7305 19.2839 74.4648 19.0703C74.1992 18.8568 73.8607 18.75 73.4492 18.75C73.0378 18.75 72.6992 18.8568 72.4336 19.0703C72.168 19.2839 71.9714 19.5638 71.8438 19.9102C71.7161 20.2565 71.6523 20.6302 71.6523 21.0312C71.6523 21.4323 71.7161 21.8047 71.8438 22.1484C71.9714 22.4922 72.168 22.7695 72.4336 22.9805C72.6992 23.1914 73.0378 23.2969 73.4492 23.2969ZM78.4971 20.3906V24H77.5752V18H78.4658V18.9375H78.5439C78.6846 18.6328 78.8981 18.388 79.1846 18.2031C79.471 18.0156 79.8408 17.9219 80.2939 17.9219C80.7002 17.9219 81.0557 18.0052 81.3604 18.1719C81.665 18.3359 81.902 18.5859 82.0713 18.9219C82.2406 19.2552 82.3252 19.6771 82.3252 20.1875V24H81.4033V20.25C81.4033 19.7786 81.2809 19.4115 81.0361 19.1484C80.7913 18.8828 80.4554 18.75 80.0283 18.75C79.734 18.75 79.471 18.8138 79.2393 18.9414C79.0101 19.069 78.8291 19.2552 78.6963 19.5C78.5635 19.7448 78.4971 20.0417 78.4971 20.3906ZM89.9004 16V24H88.9316V17.0156H88.8848L86.9316 18.3125V17.3281L88.9316 16H89.9004Z" fill="black"/>
<defs>
<filter id="filter0_dd_0_1" x="152.47" y="153.84" width="334.486" height="77.12" filterUnits="userSpaceOnUse" color-interpolation-filters="sRGB">
<feFlood flood-opacity="0" result="BackgroundImageFix"/>
<feColorMatrix in="SourceAlpha" type="matrix" values="0 0 0 0 0 0 0 0 0 0 0 0 0 0 0 0 0 0 127 0" result="hardAlpha"/>
<feOffset dy="4"/>
<feGaussianBlur stdDeviation="2"/>
<feComposite in2="hardAlpha" operator="out"/>
<feColorMatrix type="matrix" values="0 0 0 0 0 0 0 0 0 0 0 0 0 0 0 0 0 0 0.25 0"/>
<feBlend mode="normal" in2="BackgroundImageFix" result="effect1_dropShadow_0_1"/>
<feColorMatrix in="SourceAlpha" type="matrix" values="0 0 0 0 0 0 0 0 0 0 0 0 0 0 0 0 0 0 127 0" result="hardAlpha"/>
<feOffset dy="4"/>
<feGaussianBlur stdDeviation="2"/>
<feComposite in2="hardAlpha" operator="out"/>
<feColorMatrix type="matrix" values="0 0 0 0 0 0 0 0 0 0 0 0 0 0 0 0 0 0 0.25 0"/>
<feBlend mode="normal" in2="effect1_dropShadow_0_1" result="effect2_dropShadow_0_1"/>
<feBlend mode="normal" in="SourceGraphic" in2="effect2_dropShadow_0_1" result="shape"/>
</filter>
<filter id="filter1_dd_0_1" x="128" y="299" width="189" height="189" filterUnits="userSpaceOnUse" color-interpolation-filters="sRGB">
<feFlood flood-opacity="0" result="BackgroundImageFix"/>
<feColorMatrix in="SourceAlpha" type="matrix" values="0 0 0 0 0 0 0 0 0 0 0 0 0 0 0 0 0 0 127 0" result="hardAlpha"/>
<feOffset dy="4"/>
<feGaussianBlur stdDeviation="2"/>
<feComposite in2="hardAlpha" operator="out"/>
<feColorMatrix type="matrix" values="0 0 0 0 0 0 0 0 0 0 0 0 0 0 0 0 0 0 0.25 0"/>
<feBlend mode="normal" in2="BackgroundImageFix" result="effect1_dropShadow_0_1"/>
<feColorMatrix in="SourceAlpha" type="matrix" values="0 0 0 0 0 0 0 0 0 0 0 0 0 0 0 0 0 0 127 0" result="hardAlpha"/>
<feOffset dy="4"/>
<feGaussianBlur stdDeviation="2"/>
<feComposite in2="hardAlpha" operator="out"/>
<feColorMatrix type="matrix" values="0 0 0 0 0 0 0 0 0 0 0 0 0 0 0 0 0 0 0.25 0"/>
<feBlend mode="normal" in2="effect1_dropShadow_0_1" result="effect2_dropShadow_0_1"/>
<feBlend mode="normal" in="SourceGraphic" in2="effect2_dropShadow_0_1" result="shape"/>
</filter>
<filter id="filter2_dd_0_1" x="238" y="185.518" width="262" height="258.482" filterUnits="userSpaceOnUse" color-interpolation-filters="sRGB">
<feFlood flood-opacity="0" result="BackgroundImageFix"/>
<feColorMatrix in="SourceAlpha" type="matrix" values="0 0 0 0 0 0 0 0 0 0 0 0 0 0 0 0 0 0 127 0" result="hardAlpha"/>
<feOffset dy="4"/>
<feGaussianBlur stdDeviation="2"/>
<feComposite in2="hardAlpha" operator="out"/>
<feColorMatrix type="matrix" values="0 0 0 0 0 0 0 0 0 0 0 0 0 0 0 0 0 0 0.25 0"/>
<feBlend mode="normal" in2="BackgroundImageFix" result="effect1_dropShadow_0_1"/>
<feColorMatrix in="SourceAlpha" type="matrix" values="0 0 0 0 0 0 0 0 0 0 0 0 0 0 0 0 0 0 127 0" result="hardAlpha"/>
<feOffset dy="4"/>
<feGaussianBlur stdDeviation="2"/>
<feComposite in2="hardAlpha" operator="out"/>
<feColorMatrix type="matrix" values="0 0 0 0 0 0 0 0 0 0 0 0 0 0 0 0 0 0 0.25 0"/>
<feBlend mode="normal" in2="effect1_dropShadow_0_1" result="effect2_dropShadow_0_1"/>
<feBlend mode="normal" in="SourceGraphic" in2="effect2_dropShadow_0_1" result="shape"/>
</filter>
<filter id="filter3_dd_0_1" x="399" y="327" width="156" height="153" filterUnits="userSpaceOnUse" color-interpolation-filters="sRGB">
<feFlood flood-opacity="0" result="BackgroundImageFix"/>
<feColorMatrix in="SourceAlpha" type="matrix" values="0 0 0 0 0 0 0 0 0 0 0 0 0 0 0 0 0 0 127 0" result="hardAlpha"/>
<feOffset dy="4"/>
<feGaussianBlur stdDeviation="2"/>
<feComposite in2="hardAlpha" operator="out"/>
<feColorMatrix type="matrix" values="0 0 0 0 0 0 0 0 0 0 0 0 0 0 0 0 0 0 0.25 0"/>
<feBlend mode="normal" in2="BackgroundImageFix" result="effect1_dropShadow_0_1"/>
<feColorMatrix in="SourceAlpha" type="matrix" values="0 0 0 0 0 0 0 0 0 0 0 0 0 0 0 0 0 0 127 0" result="hardAlpha"/>
<feOffset dy="4"/>
<feGaussianBlur stdDeviation="2"/>
<feComposite in2="hardAlpha" operator="out"/>
<feColorMatrix type="matrix" values="0 0 0 0 0 0 0 0 0 0 0 0 0 0 0 0 0 0 0.25 0"/>
<feBlend mode="normal" in2="effect1_dropShadow_0_1" result="effect2_dropShadow_0_1"/>
<feBlend mode="normal" in="SourceGraphic" in2="effect2_dropShadow_0_1" result="shape"/>
</filter>
</defs>
</svg>
